<?xml version="1.0" encoding="UTF-8"?>
<!DOCTYPE svg PUBLIC "-//W3C//DTD SVG 1.1//EN" "http://www.w3.org/Graphics/SVG/1.1/DTD/svg11.dtd">
<!-- Creator: CorelDRAW (Evaluation Version) -->
<svg xmlns="http://www.w3.org/2000/svg" xml:space="preserve" width="3.42478in" height="3.42478in" version="1.1" style="shape-rendering:geometricPrecision; text-rendering:geometricPrecision; image-rendering:optimizeQuality; fill-rule:evenodd; clip-rule:evenodd"
viewBox="0 0 459.64 459.64"
 xmlns:xlink="http://www.w3.org/1999/xlink"
 xmlns:xodm="http://www.corel.com/coreldraw/odm/2003">
 <defs>
  <style type="text/css">
   <![CDATA[
    .str0 {stroke:#FFC30B;stroke-width:3.73;stroke-miterlimit:2.61313}
    .str1 {stroke:#FFC30B;stroke-width:0.93;stroke-miterlimit:2.61313}
    .str2 {stroke:#FFC30B;stroke-width:3.73;stroke-miterlimit:2.61313;stroke-dasharray:18.641603 3.728321 3.728321 3.728321}
    .fil6 {fill:none}
    .fil5 {fill:#FEFEFE}
    .fil1 {fill:#FEC42B}
    .fil0 {fill:black}
    .fil3 {fill:#FFC30B}
    .fil2 {fill:#FFC30B;fill-rule:nonzero}
    .fil4 {fill:#FFC30B;fill-rule:nonzero}
   ]]>
  </style>
 </defs>
 <g id="Layer_x0020_1">
  <metadata id="CorelCorpID_0Corel-Layer"/>
  <g id="_1593248757904">
   <circle class="fil0 str0" cx="229.82" cy="229.82" r="227.96"/>
   <path class="fil1" d="M173.45 345.55c-0.81,1.06 -3.94,8.73 -4.37,10.36 -0.58,2.22 -0.69,4.22 0.08,6.43 0.53,1.52 2.33,3.16 4.29,3.14 4.58,-0.05 5.59,-5.25 4.47,-9.56 -0.68,-2.62 -2.08,-5.38 -3.19,-7.87 -0.25,-0.57 -0.78,-2.15 -1.27,-2.5z"/>
   <path class="fil2" d="M147 301.82l-0.01 -0.24 0 -50.86 -42.92 -24.78c-1.72,-0.99 -2.77,-2.81 -2.77,-4.79l0 -53.4c-0,-1.97 1.05,-3.8 2.77,-4.79l23.12 -13.35c0,0 0.06,-0.03 0.09,-0.04l20.35 -11.25 0 -23.71c0,-3.06 2.47,-5.53 5.53,-5.53 3.06,0 5.54,2.47 5.54,5.53l-0 23.51 43.62 25.18c0.21,0.13 0.41,0.25 0.6,0.39 0.64,0.46 1.15,1.05 1.53,1.71 0.38,0.68 0.64,1.44 0.7,2.24 0.02,0.24 0.04,0.46 0.02,0.69l-0.31 26.2 -0 24.15 11.66 6.15c-2.36,5.92 -4.77,8.06 -7.16,8.6l-10.62 -5.53 -40.67 23.47 0 47.02 40.75 23.51 40.44 -22.83 0 -47.03 -11.62 -6.29c-0.36,-2.78 4.31,-7.81 8.6,-7.57l8.58 4.31c3.15,2.03 5.13,5.02 5.49,9.6l0 47.01c-0.05,0.52 -0.12,1.03 -0.21,1.53l0 0 -0.9 37.32c3.68,17.02 -7.84,13.11 -6.7,2.85 5.27,-47.32 -26.57,-16.62 -21.83,2.23 3.36,13.38 -6.57,9.83 -4.16,-0.31 3.83,-16.12 -18.87,-19.37 -18.92,6.62 -0.01,7.76 5.68,17.21 -2.47,16.97 -0.89,-1.33 -1.33,-1.16 -1.66,-3.07 -0.52,-3.07 1.33,-7.09 1.88,-10.69 2.75,-17.95 -13.2,-33.49 -18.73,-25.55 -1.58,2.27 -1.04,4.85 -0.58,7.43 1.31,7.44 -5.68,7.71 -4.17,0.09 0.33,-1.68 1.3,-3.6 1.12,-6.45 -2.61,-33.47 -28.17,-13.96 -16.76,8.24 5.67,14.79 -4.64,19.55 -6.53,11.78l0.45 0.59c0.06,0.09 0.14,0.19 0.21,0.28 0.97,1.27 1.01,1.56 2.72,1.86 -0.02,-0.04 -3.65,-2.13 -2.98,-5.85 -0.04,0.43 -0.06,1.45 -0.14,1.79l-0.6 1.4c-0.62,-9.72 2.67,-14.44 2.55,-23.41 -0.18,-13.68 -4.37,-7.63 -4.9,-22.95l0 0zm-34.62 -83.84l40.71 23.5 40.73 -23.5 0 -23.5 0.28 -23.13 -40.74 -23.52 -20.66 11.42 -20.31 11.72 0 47.02 -0 -0.01z"/>
   <path class="fil3 str1" d="M342.42 93.72c-3.67,1.92 -5.36,1.16 -8.3,4.21 -1.77,1.84 -3.49,4.25 -3.59,7.73l4.79 0.81c3.45,-3.89 2.46,-5.46 7.84,-8.99 4.61,-3.03 8.98,-3.36 14.93,-3.24 0.62,2.83 -0,5.6 -0.74,8.15 -8.29,-0.68 -10.61,2.58 -13.82,6.8 1.15,1.92 14.4,10.33 10.2,26.71 -2.18,8.51 -9.36,17.29 -20.98,17.8l-3.12 -7.55c12.16,0.19 21.94,-12.65 14.55,-24.36 -6.4,-10.15 -20.7,-10.21 -27.32,-0.04 -7.03,10.8 3.52,22 7.53,31.21 5.69,13.08 2.2,25.16 -3.95,32.92 -34.61,44.03 -68.82,25.07 -112.87,63.06 31.42,-35.28 21.82,-67.3 52.27,-99.9 3.67,1.86 8.71,6.56 12.24,9.38l36 28.9c3.38,-1.73 9.91,-11.48 10.93,-17.19 3.71,-20.65 -26.35,-34.29 -6.18,-56.19 2.41,-2.62 3.43,-3.27 6.39,-4.97 6.38,-3.67 0.95,-8.65 7.86,-16.06 3.12,-3.34 8.22,-6.2 14.31,-6.61l1.02 7.41z"/>
   <path class="fil3 str1" d="M299.67 129.35l1.85 10.98c-5.99,-0.97 -8.99,-3.84 -16.91,-1.02 -6.37,2.27 -8.38,6.05 -12.78,8.26l-5.79 -4.77c2.33,-2.62 5.06,-5.1 8.34,-7.24 1.77,-1.15 3.08,-2.08 5.09,-2.95 1.87,-0.81 4.19,-1.21 5.87,-2.11 -4.71,-3.93 -17.73,-8.65 -25.06,-10.69 -9.94,-2.77 -21.07,-4 -32.46,-1.09 -1.88,15.16 10.34,31.76 18.05,36.38 -0.75,2.5 -2.44,5.13 -5.08,6.58 -14.75,-11.54 -24.22,-29.86 -20.26,-49.4 32.71,-9.7 59.95,4.89 79.14,17.08z"/>
   <path class="fil3 str1" d="M217.47 136.76c-4.93,1.46 -9.13,3.74 -12.53,6.22 3.73,7.68 15.79,15.92 23.44,19.77 3.48,1.75 6.46,2.58 9.99,4.19 -0.91,2.36 -2.18,4.68 -3.46,7.17 -15.8,-4.35 -32.77,-17.33 -40.17,-32.21l1.44 -2c4.37,-5.04 13.23,-9.66 19.67,-10.83l1.62 7.68z"/>
   <path class="fil0 str1" d="M261.9 214.5c-10.34,2.94 -20.95,7.06 -30.97,10.65 5.3,-9.62 7.22,-17.51 8.42,-25.18l22.55 14.53z"/>
   <circle class="fil3 str1" transform="matrix(-0.241826 0.0266856 0.0266856 0.241826 333.416 128.366)" r="13.58"/>
   <path class="fil0 str1" d="M286.45 204.84c-6.93,4.81 -14.35,6.47 -18.76,7.2l-27.12 -17.43c1.53,-6.79 4.14,-12.62 7.22,-18.03l38.66 28.26z"/>
   <path class="fil0 str1" d="M305.37 192.43c-4.83,4.15 -9.76,7.81 -16.05,9.68l-39.97 -28.64c2.53,-6.32 5.66,-11.04 9.96,-15.79l46.06 34.75z"/>
   <path class="fil4 str1" d="M162.56 302.29c-3.73,-1.67 -11.04,-3.79 -11.04,-7.17 0,-12.4 2.05,10.22 2.05,-2.17 0,-3.37 -2.83,-8.03 0.88,-9.69 57.82,37.85 32.4,-11.14 89.54,-22.86 2.91,-0.6 -0.12,27.26 0.37,33 0.44,5.16 -5.26,9.63 -10.07,11.79 -5.44,2.44 -31.19,16.72 -35.48,16.72 -4.66,0 -30.73,-17.14 -36.26,-19.62z"/>
   <path class="fil1" d="M248.92 353.4c-0.81,1.06 -3.94,8.73 -4.37,10.36 -0.58,2.22 -0.69,4.22 0.08,6.43 0.53,1.52 2.33,3.16 4.29,3.14 4.58,-0.05 5.59,-5.25 4.47,-9.56 -0.68,-2.62 -2.08,-5.38 -3.19,-7.87 -0.25,-0.57 -0.78,-2.15 -1.27,-2.5z"/>
   <path class="fil5" d="M226.19 276.14c-6.26,2.7 -12,8.88 -17.19,18.9 12.1,-12.43 13.25,-14.86 19.69,-16.49 3.97,-1 0.79,-3.83 -2.5,-2.41z"/>
   <circle class="fil6 str2" cx="229.82" cy="229.82" r="211.77"/>
   <path class="fil3" d="M157.7 160.83l11.17 6.88 11.29 6.95c2.28,1.4 3.55,3.73 3.51,6.41l-0.23 13.44 -0.23 13.4c-0.05,2.7 -1.42,5 -3.77,6.31l-11.46 6.42 -11.38 6.37c-2.4,1.34 -5.13,1.29 -7.48,-0.16l-11.17 -6.88 -11.29 -6.95c-2.28,-1.41 -3.55,-3.73 -3.51,-6.41l0.23 -13.44 0.23 -13.4c0.05,-2.7 1.42,-5 3.77,-6.31l11.46 -6.42 11.38 -6.37c2.4,-1.34 5.13,-1.29 7.47,0.16z"/>
  </g>
 </g>
</svg>
