<?xml version="1.0" encoding="UTF-8"?>
<!DOCTYPE svg PUBLIC "-//W3C//DTD SVG 1.1//EN" "http://www.w3.org/Graphics/SVG/1.1/DTD/svg11.dtd">
<!-- Creator: CorelDRAW (Evaluation Version) -->
<svg xmlns="http://www.w3.org/2000/svg" xml:space="preserve" width="3.42446in" height="3.42446in" version="1.1" style="shape-rendering:geometricPrecision; text-rendering:geometricPrecision; image-rendering:optimizeQuality; fill-rule:evenodd; clip-rule:evenodd"
viewBox="0 0 1933.58 1933.58"
 xmlns:xlink="http://www.w3.org/1999/xlink"
 xmlns:xodm="http://www.corel.com/coreldraw/odm/2003">
 <defs>
  <style type="text/css">
   <![CDATA[
    .str0 {stroke:black;stroke-width:15.69;stroke-miterlimit:2.61313}
    .str1 {stroke:#FEFEFE;stroke-width:3.92;stroke-miterlimit:2.61313}
    .str2 {stroke:#FEFEFE;stroke-width:15.69;stroke-miterlimit:2.61313;stroke-dasharray:78.426925 15.685385 15.685385 15.685385}
    .fil3 {fill:none}
    .fil1 {fill:#FEFEFE}
    .fil0 {fill:black}
    .fil2 {fill:#FEFEFE;fill-rule:nonzero}
   ]]>
  </style>
 </defs>
 <g id="Layer_x0020_1">
  <metadata id="CorelCorpID_0Corel-Layer"/>
  <g id="_1593270322112">
   <circle class="fil0 str0" cx="966.79" cy="966.79" r="958.95"/>
   <path class="fil1" d="M729.64 1453.61c-3.39,4.45 -16.57,36.71 -18.38,43.6 -2.45,9.35 -2.89,17.75 0.34,27.06 2.21,6.38 9.8,13.29 18.03,13.19 19.26,-0.23 23.53,-22.1 18.79,-40.22 -2.88,-11 -8.75,-22.62 -13.43,-33.1 -1.07,-2.4 -3.29,-9.07 -5.35,-10.53z"/>
   <path class="fil2" d="M618.37 1269.65l-0.02 -1 0 -213.94 -180.54 -104.22c-7.22,-4.17 -11.66,-11.82 -11.66,-20.15l0 -224.64c-0,-8.28 4.43,-15.98 11.66,-20.15l97.26 -56.17c0,0 0.26,-0.11 0.37,-0.16l85.61 -47.31 0 -99.74c0,-12.87 10.39,-23.26 23.26,-23.26 12.87,0 23.32,10.39 23.32,23.26l-0 98.9 183.51 105.91c0.89,0.53 1.74,1.05 2.53,1.63 2.69,1.95 4.85,4.43 6.44,7.18 1.58,2.85 2.69,6.06 2.95,9.44 0.1,1 0.16,1.96 0.1,2.9l-1.31 110.24 -0 101.59 49.03 25.86c-9.92,24.9 -20.06,33.92 -30.13,36.17l-44.69 -23.25 -171.1 98.74 0 197.79 171.41 98.9 170.11 -96.05 0 -197.84 -48.87 -26.46c-1.52,-11.68 18.14,-32.86 36.19,-31.83l36.09 18.14c13.24,8.55 21.57,21.11 23.1,40.4l0 197.75c-0.21,2.2 -0.51,4.35 -0.9,6.43l0 0 -3.8 156.99c15.46,71.6 -32.97,55.17 -28.18,12.01 22.18,-199.04 -111.75,-69.93 -91.85,9.37 14.12,56.27 -27.62,41.35 -17.5,-1.31 16.11,-67.82 -79.39,-81.47 -79.61,27.85 -0.06,32.63 23.89,72.41 -10.37,71.37 -3.73,-5.6 -5.61,-4.88 -6.97,-12.9 -2.19,-12.93 5.6,-29.82 7.92,-44.97 11.56,-75.5 -55.52,-140.87 -78.78,-107.47 -6.65,9.55 -4.36,20.39 -2.45,31.27 5.5,31.28 -23.9,32.43 -17.52,0.37 1.4,-7.06 5.45,-15.15 4.71,-27.14 -10.99,-140.8 -118.51,-58.72 -70.51,34.68 23.85,62.21 -19.54,82.24 -27.47,49.57l1.9 2.47c0.27,0.36 0.59,0.8 0.88,1.19 4.09,5.34 4.27,6.54 11.46,7.84 -0.08,-0.15 -15.37,-8.95 -12.53,-24.61 -0.17,1.82 -0.26,6.09 -0.6,7.51l-2.54 5.87c-2.62,-40.88 11.24,-60.73 10.74,-98.48 -0.77,-57.56 -18.37,-32.08 -20.62,-96.54l0 0zm-145.64 -352.7l171.27 98.84 171.32 -98.84 0 -98.84 1.16 -97.32 -171.36 -98.95 -86.93 48.05 -85.45 49.32 0 197.78 -0.02 -0.05z"/>
   <path class="fil1" d="M1440.45 394.26c-15.45,8.08 -22.55,4.86 -34.91,17.72 -7.43,7.72 -14.67,17.89 -15.1,32.52l20.13 3.39c14.51,-16.38 10.36,-22.97 32.98,-37.82 19.4,-12.73 37.78,-14.15 62.81,-13.62 2.6,11.91 -0,23.58 -3.13,34.28 -34.88,-2.84 -44.65,10.84 -58.14,28.6 4.83,8.08 60.6,43.45 42.9,112.37 -9.19,35.79 -39.38,72.73 -88.25,74.89l-13.13 -31.78c51.16,0.79 92.31,-53.2 61.22,-102.49 -26.92,-42.69 -87.07,-42.96 -114.94,-0.15 -29.57,45.44 14.83,92.54 31.69,131.29 23.95,55.01 9.25,105.83 -16.62,138.48 -145.59,185.21 -289.51,105.46 -474.8,265.26 132.17,-148.4 91.78,-283.1 219.87,-420.23 15.44,7.83 36.64,27.59 51.5,39.46l151.46 121.57c14.21,-7.29 41.69,-48.29 46,-72.32 15.59,-86.86 -110.83,-144.25 -25.98,-236.36 10.15,-11.01 14.44,-13.77 26.87,-20.91 26.85,-15.43 3.98,-36.38 33.05,-67.54 13.12,-14.06 34.58,-26.08 60.19,-27.81l4.31 31.19z"/>
   <path class="fil1" d="M1260.64 544.13l7.79 46.21c-25.2,-4.07 -37.81,-16.17 -71.14,-4.29 -26.79,9.55 -35.26,25.44 -53.75,34.74l-24.34 -20.08c9.82,-11.03 21.3,-21.47 35.08,-30.47 7.43,-4.85 12.95,-8.75 21.43,-12.42 7.88,-3.41 17.64,-5.08 24.68,-8.89 -19.82,-16.53 -74.59,-36.38 -105.43,-44.97 -41.83,-11.65 -88.62,-16.82 -136.54,-4.59 -7.92,63.77 43.5,133.59 75.93,153.03 -3.14,10.51 -10.28,21.6 -21.38,27.68 -62.04,-48.55 -101.91,-125.63 -85.24,-207.81 137.6,-40.8 252.19,20.57 332.92,71.85z"/>
   <path class="fil1" d="M914.84 575.3c-20.73,6.14 -38.4,15.73 -52.7,26.18 15.71,32.32 66.41,66.98 98.59,83.18 14.63,7.36 27.16,10.85 42.04,17.64 -3.81,9.95 -9.15,19.69 -14.57,30.14 -66.48,-18.31 -137.86,-72.9 -169,-135.48l6.08 -8.41c18.37,-21.21 55.67,-40.65 82.75,-45.57l6.81 32.32z"/>
   <path class="fil0" d="M1101.73 902.35c-43.48,12.37 -88.13,29.7 -130.29,44.78 22.31,-40.47 30.37,-73.68 35.42,-105.91l94.87 61.13z"/>
   <circle class="fil1 str1" transform="matrix(-0.241804 0.0266832 0.0266832 0.241804 1402.58 539.997)" r="57.12"/>
   <path class="fil0" d="M1205 861.71c-29.14,20.22 -60.37,27.2 -78.92,30.27l-114.09 -73.31c6.44,-28.55 17.43,-53.07 30.37,-75.86l162.64 118.89z"/>
   <path class="fil0" d="M1284.6 809.48c-20.3,17.45 -41.05,32.88 -67.53,40.72l-168.14 -120.47c10.65,-26.6 23.8,-46.46 41.91,-66.43l193.77 146.19z"/>
   <path class="fil2" d="M683.83 1271.64c-15.67,-7.02 -46.43,-15.94 -46.43,-30.17 0,-52.15 8.64,43 8.64,-9.15 0,-14.18 -11.89,-33.76 3.69,-40.75 243.24,159.23 136.29,-46.87 376.66,-96.17 12.22,-2.51 -0.5,114.69 1.56,138.83 1.85,21.71 -22.14,40.53 -42.34,49.58 -22.87,10.25 -131.19,70.34 -149.27,70.34 -19.6,0 -129.27,-72.1 -152.51,-82.52z"/>
   <path class="fil1" d="M1047.15 1486.65c-3.39,4.45 -16.57,36.71 -18.38,43.6 -2.45,9.35 -2.89,17.75 0.34,27.06 2.21,6.38 9.8,13.29 18.03,13.19 19.25,-0.23 23.53,-22.1 18.79,-40.22 -2.88,-11.01 -8.75,-22.62 -13.44,-33.1 -1.07,-2.4 -3.29,-9.07 -5.35,-10.53z"/>
   <path class="fil0" d="M951.52 1161.63c-26.35,11.37 -50.5,37.34 -72.3,79.52 50.92,-52.28 55.74,-62.51 82.83,-69.37 16.69,-4.22 3.3,-16.12 -10.53,-10.15z"/>
   <circle class="fil3 str2" cx="966.79" cy="966.79" r="890.85"/>
   <path class="fil1" d="M663.38 676.57l47 28.95 47.47 29.25c9.6,5.91 14.95,15.69 14.76,26.96l-0.96 56.54 -0.95 56.38c-0.19,11.36 -5.96,21.01 -15.87,26.56l-48.21 26.99 -47.88 26.8c-10.09,5.65 -21.6,5.41 -31.45,-0.66l-47 -28.95 -47.47 -29.25c-9.6,-5.91 -14.95,-15.69 -14.76,-26.96l0.96 -56.54 0.95 -56.38c0.19,-11.36 5.96,-21.01 15.88,-26.56l48.21 -26.99 47.88 -26.8c10.09,-5.65 21.6,-5.41 31.44,0.66z"/>
  </g>
 </g>
</svg>
