<?xml version="1.0" encoding="UTF-8"?>
<!DOCTYPE svg PUBLIC "-//W3C//DTD SVG 1.1//EN" "http://www.w3.org/Graphics/SVG/1.1/DTD/svg11.dtd">
<!-- Creator: CorelDRAW (Evaluation Version) -->
<svg xmlns="http://www.w3.org/2000/svg" xml:space="preserve" width="3.42446in" height="3.42446in" version="1.1" style="shape-rendering:geometricPrecision; text-rendering:geometricPrecision; image-rendering:optimizeQuality; fill-rule:evenodd; clip-rule:evenodd"
viewBox="0 0 722.33 722.33"
 xmlns:xlink="http://www.w3.org/1999/xlink"
 xmlns:xodm="http://www.corel.com/coreldraw/odm/2003">
 <defs>
  <style type="text/css">
   <![CDATA[
    .str0 {stroke:black;stroke-width:5.86;stroke-miterlimit:2.61313}
    .str1 {stroke:black;stroke-width:1.46;stroke-miterlimit:2.61313}
    .str2 {stroke:black;stroke-width:5.86;stroke-miterlimit:2.61313;stroke-dasharray:29.298043 5.859609 5.859609 5.859609}
    .fil5 {fill:none}
    .fil3 {fill:#FEFEFE}
    .fil0 {fill:#FEFEFE}
    .fil4 {fill:#FEFEFE}
    .fil1 {fill:black}
    .fil2 {fill:black;fill-rule:nonzero}
   ]]>
  </style>
 </defs>
 <g id="Layer_x0020_1">
  <metadata id="CorelCorpID_0Corel-Layer"/>
  <g id="_1593244388656">
   <circle class="fil0 str0" cx="361.17" cy="361.17" r="358.24"/>
   <path class="fil1" d="M272.57 543.03c-1.27,1.66 -6.19,13.71 -6.86,16.29 -0.91,3.49 -1.08,6.63 0.13,10.11 0.83,2.39 3.66,4.97 6.74,4.93 7.19,-0.08 8.79,-8.25 7.02,-15.03 -1.07,-4.11 -3.27,-8.45 -5.02,-12.37 -0.4,-0.9 -1.23,-3.39 -2,-3.94z"/>
   <path class="fil2" d="M231.01 474.31l-0.01 -0.37 0 -79.92 -67.45 -38.94c-2.7,-1.56 -4.35,-4.41 -4.36,-7.53l0 -83.92c-0,-3.09 1.66,-5.97 4.35,-7.53l36.33 -20.99c0,0 0.1,-0.04 0.14,-0.06l31.98 -17.67 0 -37.26c0,-4.81 3.88,-8.69 8.69,-8.69 4.81,0 8.71,3.88 8.71,8.69l-0 36.95 68.55 39.57c0.33,0.2 0.65,0.39 0.95,0.61 1,0.73 1.81,1.66 2.4,2.68 0.59,1.06 1,2.27 1.1,3.53 0.04,0.37 0.06,0.73 0.04,1.08l-0.49 41.18 -0 37.95 18.32 9.66c-3.71,9.3 -7.49,12.67 -11.25,13.51l-16.7 -8.69 -63.92 36.89 0 73.89 64.04 36.95 63.55 -35.88 0 -73.91 -18.25 -9.88c-0.57,-4.36 6.78,-12.28 13.52,-11.89l13.48 6.78c4.94,3.2 8.06,7.88 8.63,15.09l0 73.87c-0.08,0.82 -0.19,1.62 -0.34,2.4l0 0 -1.42 58.65c5.78,26.75 -12.32,20.61 -10.53,4.49 8.29,-74.36 -41.75,-26.12 -34.31,3.5 5.27,21.02 -10.32,15.45 -6.54,-0.49 6.02,-25.33 -29.66,-30.44 -29.74,10.4 -0.02,12.19 8.93,27.05 -3.87,26.66 -1.39,-2.09 -2.1,-1.82 -2.6,-4.82 -0.82,-4.83 2.09,-11.14 2.96,-16.8 4.32,-28.2 -20.74,-52.63 -29.43,-40.15 -2.48,3.57 -1.63,7.62 -0.91,11.68 2.05,11.68 -8.93,12.11 -6.55,0.14 0.52,-2.64 2.04,-5.66 1.76,-10.14 -4.11,-52.6 -44.27,-21.94 -26.34,12.96 8.91,23.24 -7.3,30.72 -10.26,18.52l0.71 0.92c0.1,0.13 0.22,0.3 0.33,0.44 1.53,2 1.59,2.44 4.28,2.93 -0.03,-0.06 -5.74,-3.34 -4.68,-9.19 -0.06,0.68 -0.1,2.27 -0.23,2.81l-0.95 2.19c-0.98,-15.27 4.2,-22.69 4.01,-36.79 -0.29,-21.5 -6.86,-11.98 -7.7,-36.07l0 0zm-54.41 -131.76l63.98 36.92 64 -36.92 0 -36.92 0.43 -36.36 -64.02 -36.96 -32.47 17.95 -31.92 18.43 0 73.89 -0.01 -0.02z"/>
   <path class="fil1" d="M538.11 147.28c-5.77,3.02 -8.42,1.82 -13.04,6.62 -2.78,2.88 -5.48,6.68 -5.64,12.15l7.52 1.27c5.42,-6.12 3.87,-8.58 12.32,-14.13 7.25,-4.76 14.11,-5.28 23.47,-5.09 0.97,4.45 -0,8.81 -1.17,12.81 -13.03,-1.06 -16.68,4.05 -21.72,10.69 1.8,3.02 22.64,16.23 16.03,41.98 -3.43,13.37 -14.71,27.17 -32.97,27.98l-4.9 -11.87c19.11,0.3 34.48,-19.87 22.87,-38.29 -10.06,-15.95 -32.53,-16.05 -42.94,-0.06 -11.05,16.97 5.54,34.57 11.84,49.04 8.95,20.55 3.46,39.54 -6.21,51.73 -54.39,69.19 -108.15,39.4 -177.37,99.09 49.37,-55.44 34.28,-105.76 82.14,-156.99 5.77,2.93 13.69,10.31 19.24,14.74l56.58 45.42c5.31,-2.72 15.57,-18.04 17.18,-27.02 5.82,-32.45 -41.4,-53.89 -9.7,-88.3 3.79,-4.11 5.4,-5.14 10.04,-7.81 10.03,-5.76 1.49,-13.59 12.35,-25.23 4.9,-5.25 12.92,-9.74 22.49,-10.39l1.61 11.65z"/>
   <path class="fil1" d="M470.94 203.27l2.91 17.26c-9.41,-1.52 -14.13,-6.04 -26.58,-1.6 -10.01,3.57 -13.17,9.5 -20.08,12.98l-9.09 -7.5c3.67,-4.12 7.96,-8.02 13.1,-11.38 2.78,-1.81 4.84,-3.27 8,-4.64 2.94,-1.28 6.59,-1.9 9.22,-3.32 -7.4,-6.17 -27.87,-13.59 -39.39,-16.8 -15.62,-4.35 -33.11,-6.28 -51.01,-1.71 -2.96,23.82 16.25,49.91 28.36,57.17 -1.17,3.93 -3.84,8.07 -7.99,10.34 -23.18,-18.14 -38.07,-46.93 -31.84,-77.63 51.4,-15.24 94.21,7.69 124.37,26.84z"/>
   <path class="fil1" d="M341.76 214.92c-7.74,2.29 -14.34,5.87 -19.69,9.78 5.87,12.07 24.81,25.02 36.83,31.07 5.46,2.75 10.15,4.06 15.71,6.59 -1.42,3.72 -3.42,7.36 -5.44,11.26 -24.83,-6.84 -51.5,-27.23 -63.13,-50.61l2.27 -3.14c6.86,-7.92 20.8,-15.19 30.91,-17.02l2.54 12.07z"/>
   <path class="fil3" d="M411.57 337.09c-16.24,4.62 -32.92,11.09 -48.67,16.73 8.33,-15.12 11.35,-27.52 13.23,-39.57l35.44 22.84z"/>
   <circle class="fil1 str1" transform="matrix(-0.241804 0.0266832 0.0266832 0.241804 523.964 201.727)" r="21.34"/>
   <path class="fil3" d="M450.15 321.91c-10.89,7.55 -22.55,10.16 -29.48,11.31l-42.62 -27.39c2.41,-10.67 6.51,-19.83 11.34,-28.34l60.76 44.42z"/>
   <path class="fil3" d="M479.89 302.4c-7.59,6.52 -15.34,12.28 -25.23,15.21l-62.81 -45.01c3.98,-9.94 8.89,-17.36 15.66,-24.82l72.39 54.61z"/>
   <path class="fil2 str1" d="M255.46 475.05c-5.85,-2.62 -17.34,-5.96 -17.34,-11.27 0,-19.48 3.23,16.06 3.23,-3.42 0,-5.3 -4.44,-12.61 1.38,-15.22 90.87,59.48 50.91,-17.51 140.71,-35.93 4.57,-0.94 -0.19,42.84 0.58,51.86 0.69,8.11 -8.27,15.14 -15.82,18.52 -8.54,3.83 -49.01,26.28 -55.76,26.28 -7.32,0 -48.29,-26.93 -56.98,-30.83z"/>
   <path class="fil1" d="M391.19 555.37c-1.27,1.66 -6.19,13.71 -6.86,16.29 -0.91,3.49 -1.08,6.63 0.13,10.11 0.83,2.39 3.66,4.96 6.74,4.93 7.19,-0.08 8.79,-8.26 7.02,-15.03 -1.07,-4.11 -3.27,-8.45 -5.02,-12.37 -0.4,-0.9 -1.23,-3.39 -2,-3.94z"/>
   <path class="fil4" d="M355.46 433.95c-9.84,4.25 -18.86,13.95 -27.01,29.71 19.02,-19.53 20.82,-23.35 30.94,-25.91 6.23,-1.58 1.23,-6.02 -3.94,-3.79z"/>
   <circle class="fil5 str2" cx="361.17" cy="361.17" r="332.79"/>
   <path class="fil1" d="M247.82 252.75l17.56 10.82 17.73 10.93c3.59,2.21 5.59,5.86 5.51,10.07l-0.36 21.12 -0.36 21.06c-0.07,4.24 -2.23,7.85 -5.93,9.92l-18.01 10.08 -17.89 10.01c-3.77,2.11 -8.07,2.02 -11.75,-0.25l-17.56 -10.82 -17.73 -10.93c-3.59,-2.21 -5.58,-5.86 -5.51,-10.07l0.36 -21.12 0.36 -21.06c0.07,-4.24 2.23,-7.85 5.93,-9.92l18.01 -10.08 17.89 -10.01c3.77,-2.11 8.07,-2.02 11.75,0.24z"/>
  </g>
 </g>
</svg>
