<?xml version="1.0" encoding="UTF-8"?>
<!DOCTYPE svg PUBLIC "-//W3C//DTD SVG 1.1//EN" "http://www.w3.org/Graphics/SVG/1.1/DTD/svg11.dtd">
<!-- Creator: CorelDRAW (Evaluation Version) -->
<svg xmlns="http://www.w3.org/2000/svg" xml:space="preserve" width="10.4702in" height="4.20281in" version="1.1" style="shape-rendering:geometricPrecision; text-rendering:geometricPrecision; image-rendering:optimizeQuality; fill-rule:evenodd; clip-rule:evenodd"
viewBox="0 0 10470.24 4202.81"
 xmlns:xlink="http://www.w3.org/1999/xlink"
 xmlns:xodm="http://www.corel.com/coreldraw/odm/2003">
 <defs>
  <style type="text/css">
   <![CDATA[
    .str1 {stroke:#FEFEFE;stroke-width:60;stroke-miterlimit:2.61313}
    .str2 {stroke:black;stroke-width:27.78;stroke-miterlimit:2.61313}
    .str0 {stroke:#FEFEFE;stroke-width:6.94;stroke-miterlimit:2.61313}
    .str3 {stroke:black;stroke-width:6.94;stroke-miterlimit:2.61313}
    .str4 {stroke:black;stroke-width:27.78;stroke-miterlimit:2.61313;stroke-dasharray:138.897638 27.779528 27.779528 27.779528}
    .fil3 {fill:none}
    .fil2 {fill:#FEFEFE}
    .fil4 {fill:#FEFEFE}
    .fil6 {fill:#FEFEFE}
    .fil0 {fill:black}
    .fil1 {fill:#FEFEFE;fill-rule:nonzero}
    .fil5 {fill:black;fill-rule:nonzero}
   ]]>
  </style>
 </defs>
 <g id="Layer_x0020_1">
  <metadata id="CorelCorpID_0Corel-Layer"/>
  <g id="_1593090425504">
   <rect class="fil0" x="-0" y="-0" width="10470.25" height="4202.81"/>
   <path class="fil1" d="M1235.06 3087.3c0,1.03 1.16,2.05 2.32,2.05 4.63,0 11.58,-3.07 12.74,-6.15l23.18 -131.24c1.16,-5.13 -1.16,-7.18 -5.8,-7.18 -9.27,0 -31.28,1.02 -71.84,2.05 -40.56,1.02 -100.81,2.05 -187.71,2.05 -90.38,0 -151.79,-1.02 -192.35,-3.07 -40.56,-1.02 -61.41,-2.05 -69.52,-2.05 -4.64,0 -6.96,1.03 -8.11,7.18l-34.77 128.17c0,3.07 5.8,6.15 10.43,6.15 1.16,0 3.48,-1.02 4.64,-3.07l56.78 -89.21c6.95,-10.25 12.75,-14.35 25.49,-16.41 35.92,-7.18 118.19,-10.25 152.95,-10.25 -12.75,67.67 -39.4,204.05 -54.46,276.85 -16.22,76.9 -49.82,253.26 -57.93,290.18 -2.32,8.2 -8.11,12.3 -15.07,13.33l-57.93 10.25c-3.48,1.03 -6.95,8.2 -6.95,11.28 0,2.05 1.16,2.05 2.31,2.05 20.85,-1.03 61.41,-2.05 106.6,-2.05 50.99,0 95.02,1.02 113.56,2.05 3.47,0 3.47,-1.03 4.63,-3.07 0,-4.1 -2.32,-9.23 -4.63,-10.26l-57.94 -10.25c-5.79,-1.03 -9.27,-3.08 -8.11,-14.36 8.11,-37.94 46.35,-200.97 66.05,-287.1 18.54,-78.95 49.82,-212.25 67.2,-278.9 32.44,0 112.39,4.1 150.63,11.28 10.43,2.05 16.22,7.18 17.38,16.41l16.22 93.31zm142.52 289.15c3.47,-13.33 6.95,-25.63 10.43,-39.99 27.8,-116.89 79.94,-327.09 104.28,-428.6 3.48,-15.38 -2.31,-21.54 -16.22,-21.54 -39.39,0 -120.5,14.36 -147.15,22.56 -2.31,1.03 -3.47,2.05 -3.47,3.07 0,5.13 5.79,11.28 11.58,10.26 13.91,-2.05 33.61,-4.1 47.51,-4.1 8.11,0 12.74,7.18 10.43,18.46 -6.95,33.84 -44.03,215.33 -61.41,301.46 -20.86,100.49 -55.62,267.62 -69.52,327.09 -1.16,4.1 0,7.18 4.63,7.18l40.55 -1.03c18.54,-1.02 24.34,-7.18 28.97,-21.53 6.95,-26.66 24.33,-89.21 34.76,-113.81 45.19,-105.61 162.22,-273.77 241.01,-273.77 35.92,0 47.5,28.71 47.5,81 0,76.9 -40.55,243.01 -55.61,301.46 -2.32,7.18 -3.48,13.33 -3.48,17.43 0,8.2 5.8,14.36 20.86,14.36 34.76,0 89.22,-7.18 119.34,-23.59 1.16,-1.02 1.16,-2.05 1.16,-3.07 0,-4.1 -3.48,-8.2 -8.11,-7.18 -16.22,4.1 -32.44,6.15 -45.19,6.15 -11.59,0 -15.06,-5.13 -11.59,-17.43 27.81,-92.28 69.52,-237.89 69.52,-325.04 0,-63.57 -22.01,-103.56 -73,-103.56 -118.19,0 -234.06,166.11 -274.61,239.94 -5.79,9.23 -11.59,20.5 -18.54,33.83l-4.63 0zm825 123.04c0,-2.05 -1.16,-4.1 -3.48,-3.07 -25.49,13.33 -63.73,29.74 -88.06,35.89 -16.22,5.13 -44.03,10.26 -68.36,10.26 -70.68,0 -115.87,-42.04 -115.87,-118.94 0,-24.61 5.8,-57.42 11.59,-78.96 73,5.13 146,-5.13 203.93,-24.61 69.52,-24.61 112.39,-72.8 112.39,-126.12 0,-49.22 -41.71,-91.26 -123.98,-91.26 -163.38,0 -294.31,189.69 -294.31,336.32 0,93.31 64.89,137.4 158.74,137.4 44.03,0 69.52,-5.13 84.59,-9.23 42.87,-14.36 92.7,-38.96 119.35,-54.35 3.48,-2.05 3.48,-8.2 3.48,-12.3l0 -1.03zm-90.38 -376.31c42.87,0 59.09,32.81 59.09,69.72 0,47.17 -37.07,89.2 -86.9,109.71 -38.24,17.43 -89.22,27.69 -141.36,23.58 27.81,-112.79 96.17,-204.05 168.01,-204.05l1.16 1.03zm449.58 -174.14c-2.32,0 -3.48,1.02 -3.48,3.07 0,8.37 2.32,11.45 4.64,12.48l42.87 7.18c5.8,1.02 10.43,5.13 8.11,21.53 -9.27,47.17 -35.92,178.24 -50.98,256.17 -17.38,84.08 -48.67,244.04 -57.94,283.85 -1.16,10.25 -5.79,12.3 -13.9,14.35l-50.98 9.23c-3.48,1.03 -6.95,7.18 -6.95,11.28 0,2.05 1.16,2.05 2.31,2.05 19.7,-1.03 56.78,-2.05 98.49,-2.05 48.67,0 91.54,1.02 105.44,2.05 2.32,0 3.48,-1.03 3.48,-3.07 0,-5.13 -1.16,-9.23 -3.48,-10.26l-47.51 -9.23c-6.95,-1.02 -11.58,-4.1 -9.26,-16.41 13.9,-61.35 46.34,-200.8 63.72,-278.73 17.38,-76.9 47.51,-207.98 64.89,-268.48 2.32,-5.13 6.95,-11.28 13.9,-12.3l41.72 -7.18c5.79,-1.03 8.11,-8.37 8.11,-12.48 0,-2.05 0,-3.07 -2.32,-3.07l-210.88 0zm622.22 153.63c-115.87,0 -230.58,159.96 -274.61,237.89 -4.63,7.18 -10.43,20.51 -18.54,33.83l-4.63 -1.02c3.48,-10.26 8.11,-26.66 11.59,-37.94 16.22,-63.57 39.39,-155.85 50.98,-205.07 4.63,-17.43 -2.32,-27.69 -18.54,-27.69 -47.51,0 -111.23,16.41 -137.89,29.74 -2.31,1.02 -4.63,1.02 -4.63,3.07 0,4.1 5.8,10.25 12.75,9.23 15.06,-5.13 32.44,-9.23 41.71,-9.23 8.11,0 13.9,4.1 11.59,20.51 -6.96,37.94 -20.86,109.71 -33.61,171.24 -11.58,65.62 -40.55,205.07 -47.5,237.89 -1.16,4.1 0,6.15 3.47,6.15l44.03 -1.02c16.22,0 20.86,-6.15 24.33,-18.46 8.11,-29.74 26.65,-94.33 39.39,-122.02 46.35,-105.61 162.22,-267.62 239.85,-267.62 35.92,0 46.35,28.71 46.35,78.95 0,81 -39.4,236.86 -56.78,305.56 -1.16,6.15 -2.32,11.28 -2.32,15.38 0,8.2 5.8,14.36 22.02,14.36 33.6,0 88.06,-8.2 118.19,-24.61 1.16,0 2.32,-1.03 2.32,-2.05 0,-4.1 -4.63,-9.23 -8.11,-8.2 -17.38,5.13 -32.44,7.18 -45.19,7.18 -11.58,0 -15.06,-5.13 -11.58,-17.43 24.33,-84.08 68.36,-239.94 68.36,-327.09 0,-63.57 -23.18,-101.51 -71.84,-101.51l-1.16 0zm564.29 62.55c-3.48,-7.18 -9.27,-14.35 -13.91,-19.48 -19.7,-23.58 -50.98,-43.06 -103.13,-43.06 -176.12,0 -290.83,229.68 -290.83,355.8 0,70.75 34.76,117.92 99.65,117.92 105.44,0 196.98,-106.64 257.23,-206.1 5.8,-9.23 10.43,-19.48 15.06,-30.76l3.48 1.03c-3.48,13.33 -9.27,33.83 -11.59,44.09 -10.43,50.24 -25.49,119.97 -32.44,156.88 -1.16,8.2 -2.32,14.36 -2.32,20.51 0,7.18 5.79,14.36 20.85,14.36 37.08,0 86.91,-8.2 117.03,-23.59 1.16,-1.02 2.31,-2.05 2.31,-3.07 0,-4.1 -3.48,-9.23 -8.11,-8.2 -13.91,5.13 -33.6,8.2 -45.19,8.2 -11.59,0 -13.9,-6.15 -11.59,-18.46 9.27,-43.07 41.72,-187.64 60.25,-267.62 25.49,-110.74 62.57,-268.65 84.59,-356.83 3.47,-14.35 -2.32,-20.51 -16.22,-20.51 -39.4,0 -126.3,14.36 -152.95,23.59 -2.32,0 -3.48,1.02 -3.48,2.05 0,6.15 4.64,11.28 11.59,10.26 15.06,-2.05 37.08,-4.1 53.3,-4.1 9.27,0 12.75,6.15 11.59,16.41 -9.27,45.12 -23.18,120.99 -35.92,187.64 -2.31,11.28 -4.63,27.69 -6.95,42.04l-2.32 1.03zm-257.23 365.03c-39.39,0 -59.09,-30.76 -59.09,-85.11 0,-86.13 74.15,-322.99 200.46,-322.99 55.62,0 88.06,46.14 98.49,76.91 2.31,9.23 3.48,19.48 3.48,26.66 0,9.23 -1.16,21.53 -5.8,30.76 -48.66,126.12 -154.11,273.78 -236.37,273.78l-1.16 0zm575.87 -583.43c-35.91,0 -56.77,27.69 -56.77,51.27 0,22.56 22.01,36.91 44.03,36.91 34.76,0 56.78,-25.63 56.78,-50.24 0,-15.38 -10.43,-37.94 -42.87,-37.94l-1.16 0zm0 155.85c-46.34,0 -111.23,16.41 -137.88,29.74 -2.32,1.02 -3.48,1.02 -3.48,3.07 0,4.1 5.79,10.25 11.59,9.23 15.06,-5.13 32.44,-9.23 41.72,-9.23 9.26,0 13.9,5.13 11.58,20.51 -5.79,31.79 -18.54,102.54 -34.76,185.59 -15.06,77.93 -34.76,178.41 -38.24,202 -1.15,5.13 -2.31,13.33 -2.31,17.43 0,8.2 4.63,15.38 20.85,15.38 37.08,0 91.54,-8.2 121.67,-24.61 1.15,0 2.31,-1.03 2.31,-2.05 0,-4.1 -3.48,-9.23 -8.11,-8.2 -17.38,5.13 -34.76,7.18 -47.51,7.18 -11.59,0 -15.06,-6.15 -12.74,-18.46 8.11,-34.86 28.97,-118.94 42.87,-184.57 17.38,-74.85 40.55,-168.16 52.14,-215.33 4.64,-18.46 -2.32,-27.69 -18.54,-27.69l-1.16 0zm495.93 63.57l-4.63 0c-3.48,-6.15 -8.11,-13.33 -13.91,-19.48 -18.54,-21.53 -47.5,-44.09 -110.07,-44.09 -174.96,0 -290.84,221.48 -290.84,357.85 0,70.75 33.6,115.87 99.65,115.87 103.13,0 187.71,-108.69 242.17,-199.95 5.79,-9.23 11.59,-21.53 17.38,-32.81l3.47 1.02c-2.31,10.26 -5.79,23.59 -9.26,36.91 -13.91,58.45 -32.45,137.4 -37.08,164.06 -1.16,6.15 -2.32,12.31 -2.32,16.41 0,8.2 6.95,14.36 22.02,14.36 37.08,0 85.75,-7.18 117.03,-23.59 1.16,-1.02 2.32,-2.05 2.32,-3.07 0,-3.07 -3.48,-8.2 -8.11,-7.18 -15.06,4.1 -33.6,7.18 -46.35,7.18 -10.43,0 -12.74,-6.15 -10.43,-17.43 6.95,-30.76 26.65,-105.61 37.08,-151.75 16.22,-66.65 53.3,-215.33 64.89,-258.39 2.31,-10.25 -11.59,-16.41 -16.23,-16.41 -2.31,0 -3.47,1.03 -4.63,2.05l-52.14 58.44zm-127.46 -45.11c56.78,0 82.27,52.29 89.22,85.11 1.16,7.18 1.16,14.35 1.16,22.56 0,9.23 -3.48,24.61 -9.27,38.96 -40.55,101.51 -139.04,262.5 -224.79,262.5 -37.08,0 -57.94,-30.76 -57.94,-83.06 0,-103.56 76.48,-326.07 200.46,-326.07l1.15 0zm677.84 -18.46c-115.87,0 -230.58,159.96 -274.61,237.89 -4.64,7.18 -10.43,20.51 -18.54,33.83l-4.64 -1.02c3.48,-10.26 8.11,-26.66 11.59,-37.94 16.22,-63.57 39.39,-155.85 50.98,-205.07 4.64,-17.43 -2.32,-27.69 -18.54,-27.69 -47.5,0 -111.23,16.41 -137.89,29.74 -2.31,1.02 -4.63,1.02 -4.63,3.07 0,4.1 5.8,10.25 12.75,9.23 15.06,-5.13 32.44,-9.23 41.71,-9.23 8.11,0 13.91,4.1 11.59,20.51 -6.95,37.94 -20.86,109.71 -33.6,171.24 -11.59,65.62 -40.56,205.07 -47.51,237.89 -1.16,4.1 0,6.15 3.48,6.15l44.03 -1.02c16.22,0 20.85,-6.15 24.33,-18.46 8.11,-29.74 26.65,-94.33 39.39,-122.02 46.35,-105.61 162.22,-267.62 239.85,-267.62 35.92,0 46.35,28.71 46.35,78.95 0,81 -39.4,236.86 -56.78,305.56 -1.15,6.15 -2.31,11.28 -2.31,15.38 0,8.2 5.8,14.36 22.02,14.36 33.6,0 88.06,-8.2 118.19,-24.61 1.15,0 2.31,-1.03 2.31,-2.05 0,-4.1 -4.63,-9.23 -8.11,-8.2 -17.38,5.13 -32.44,7.18 -45.19,7.18 -11.58,0 -15.06,-5.13 -11.58,-17.43 24.33,-84.08 68.36,-239.94 68.36,-327.09 0,-63.57 -23.17,-101.51 -71.84,-101.51l-1.16 0zm432.2 -153.81c-2.32,0 -4.63,1.03 -4.63,4.1 0,5.13 1.15,10.26 4.63,10.26l42.87 8.2c4.64,1.03 9.27,5.13 6.96,19.48 -5.8,31.78 -33.61,176.36 -49.83,257.37 -17.38,83.06 -47.51,238.91 -57.94,284.02 -2.32,11.28 -6.95,13.33 -15.06,15.38l-48.67 9.23c-3.48,1.03 -6.95,7.18 -6.95,10.26 0,2.05 1.16,3.07 2.31,3.07 22.02,-1.03 56.78,-2.05 98.49,-2.05 48.67,0 89.22,1.02 110.08,2.05 2.32,0 3.47,-1.03 3.47,-4.1 0,-3.07 -2.31,-8.2 -4.63,-9.23l-54.46 -9.23c-4.63,-1.02 -10.43,-4.1 -8.11,-17.43 13.9,-62.55 42.87,-188.67 59.09,-252.24 1.16,-7.18 5.8,-11.28 15.07,-11.28 63.72,-3.08 246.8,-7.18 293.15,-7.18 -16.22,74.85 -47.5,230.7 -57.93,274.8 -1.16,7.18 -8.11,11.28 -16.22,12.31l-54.46 10.25c-3.48,1.03 -6.95,7.18 -6.95,10.26 0,2.05 0,3.07 2.31,3.07 17.38,-1.03 61.41,-2.05 108.92,-2.05 42.87,0 83.43,1.02 98.49,2.05 3.48,0 3.48,-1.03 3.48,-4.1 0,-4.1 -1.16,-8.2 -3.48,-9.23l-46.35 -9.23c-5.8,-1.02 -10.43,-4.1 -9.27,-13.33 10.43,-42.04 47.51,-202 66.05,-280.95 17.38,-75.88 52.14,-213.28 67.2,-265.57 4.63,-13.33 8.11,-15.38 15.06,-16.41l38.24 -8.2c3.48,0 8.11,-8.2 8.11,-11.28 0,-2.05 -1.16,-3.08 -3.48,-3.08l-209.72 0c-2.32,0 -3.47,1.03 -3.47,3.08 0,7.18 1.15,11.28 4.63,11.28l45.19 8.2c5.79,1.03 10.43,5.13 9.27,17.43 -11.59,50.24 -40.56,203.02 -52.14,252.24 -53.3,1.02 -241.01,-2.05 -287.36,-4.1 -9.26,0 -15.06,-2.05 -12.74,-11.28 9.27,-46.14 39.4,-178.41 57.93,-241.99 1.16,-6.15 4.64,-10.25 12.75,-12.3l49.82 -8.2c4.63,-1.03 8.11,-7.18 8.11,-12.31 0,-1.02 -1.16,-2.05 -3.48,-2.05l-214.36 0zm1531.81 153.81c-115.87,0 -230.58,159.96 -274.61,237.89 -4.64,7.18 -10.43,20.51 -18.54,33.83l-4.63 -1.02c3.48,-10.26 8.11,-26.66 11.59,-37.94 16.22,-63.57 39.4,-155.85 50.98,-205.07 4.64,-17.43 -2.31,-27.69 -18.54,-27.69 -47.51,0 -111.24,16.41 -137.89,29.74 -2.31,1.02 -4.63,1.02 -4.63,3.07 0,4.1 5.79,10.25 12.74,9.23 15.06,-5.13 32.44,-9.23 41.72,-9.23 8.11,0 13.9,4.1 11.58,20.51 -6.95,37.94 -20.85,109.71 -33.6,171.24 -11.58,65.62 -40.55,205.07 -47.5,237.89 -1.16,4.1 0,6.15 3.47,6.15l44.03 -1.02c16.22,0 20.86,-6.15 24.33,-18.46 8.12,-29.74 26.65,-94.33 39.4,-122.02 46.35,-105.61 162.22,-267.62 239.85,-267.62 35.92,0 46.35,28.71 46.35,78.95 0,81 -39.39,236.86 -56.78,305.56 -1.16,6.15 -2.32,11.28 -2.32,15.38 0,8.2 5.8,14.36 22.02,14.36 33.6,0 88.06,-8.2 118.19,-24.61 1.16,0 2.32,-1.03 2.32,-2.05 0,-4.1 -4.64,-9.23 -8.11,-8.2 -17.38,5.13 -32.45,7.18 -45.19,7.18 -11.59,0 -15.06,-5.13 -11.59,-17.43 24.33,-84.08 68.36,-239.94 68.36,-327.09 0,-63.57 -23.17,-101.51 -71.83,-101.51l-1.16 0zm528.37 396.81c0,-2.05 -1.16,-4.1 -3.48,-3.07 -25.49,13.33 -63.73,29.74 -88.06,35.89 -16.22,5.13 -44.03,10.26 -68.36,10.26 -70.68,0 -115.87,-42.04 -115.87,-118.94 0,-24.61 5.79,-57.42 11.59,-78.96 73,5.13 146,-5.13 203.93,-24.61 69.53,-24.61 112.4,-72.8 112.4,-126.12 0,-49.22 -41.72,-91.26 -123.98,-91.26 -163.38,0 -294.31,189.69 -294.31,336.32 0,93.31 64.89,137.4 158.74,137.4 44.03,0 69.52,-5.13 84.59,-9.23 42.87,-14.36 92.7,-38.96 119.35,-54.35 3.48,-2.05 3.48,-8.2 3.48,-12.3l0 -1.03zm-90.38 -376.31c42.87,0 59.09,32.81 59.09,69.72 0,47.17 -37.08,89.2 -86.9,109.71 -38.24,17.43 -89.22,27.69 -141.36,23.58 27.81,-112.79 96.17,-204.05 168.01,-204.05l1.16 1.03zm387 397.84c-1.16,-11.28 -2.31,-21.54 -3.48,-30.76 -10.43,-91.26 -30.12,-263.52 -39.39,-361.95 -1.16,-15.38 -5.8,-25.63 -20.86,-25.63 -47.51,0 -107.76,16.41 -132.09,28.71 -2.32,1.03 -4.63,1.03 -4.63,3.08 0,4.1 5.79,10.25 12.74,8.2 12.75,-4.1 27.81,-7.18 38.24,-7.18 8.11,0 13.91,5.13 16.22,19.48 15.06,105.61 53.3,342.47 70.68,419.38 2.31,11.28 2.31,16.41 -3.48,23.58 -50.98,60.5 -122.82,115.87 -174.96,115.87 -24.33,0 -44.03,-10.26 -57.93,-29.74 -1.16,-1.02 -1.16,-2.05 -2.32,-2.05 -4.63,0 -13.9,7.18 -13.9,12.3 0,15.38 6.95,45.12 17.38,55.37 8.11,8.2 18.54,11.28 34.76,11.28 95.01,0 199.3,-116.89 267.66,-205.07 85.74,-106.64 202.78,-309.66 243.33,-379.39 16.23,-28.71 27.81,-54.35 27.81,-66.65 0,-4.1 -2.31,-7.18 -8.11,-7.18 -18.54,0 -52.14,11.28 -66.04,20.51 -3.48,3.07 -5.8,5.13 -5.8,9.23 0,11.28 -10.43,39.99 -17.38,57.42 -35.92,91.26 -101.96,216.35 -152.95,299.41 -4.64,8.2 -12.75,20.51 -19.7,31.79l-5.8 0zm551.55 -281.98c9.27,-3.08 19.7,-7.18 25.49,-11.28 73,-32.81 154.11,-87.16 154.11,-168.16 0,-66.65 -60.26,-102.54 -137.89,-102.54 -104.28,0 -209.72,71.78 -209.72,168.16 0,53.32 33.6,90.23 62.57,117.92 4.63,4.1 9.27,7.18 12.75,10.25l0 3.07c-10.43,4.1 -22.02,9.23 -32.44,13.33 -82.27,33.84 -161.06,98.44 -161.06,185.59 0,85.11 85.74,121 178.44,121 114.71,0 180.76,-43.07 237.53,-95.36 27.81,29.74 60.25,66.65 82.27,94.33 3.47,3.07 16.22,5.13 31.28,5.13 9.27,0 13.91,-2.05 11.59,-6.15 -22.01,-43.07 -55.62,-94.33 -83.43,-134.32 44.03,-48.19 73,-99.46 91.54,-137.4 10.43,-19.48 20.86,-48.19 20.86,-57.42 0,-3.07 -2.32,-6.15 -6.95,-6.15 -19.7,0 -41.72,11.28 -52.15,21.53 -3.48,2.05 -4.63,4.1 -4.63,6.15 0,10.25 -3.48,26.66 -8.11,39.99 -9.27,31.79 -27.81,76.9 -55.62,114.84 -34.76,-51.27 -99.65,-125.09 -156.43,-179.44l0 -3.07zm-83.43 -132.27c0,-72.8 55.61,-132.27 118.19,-132.27 42.87,0 71.84,29.73 71.84,78.95 0,78.95 -54.46,138.42 -123.98,172.26 -40.55,-41.02 -66.04,-73.83 -66.04,-117.92l0 -1.02zm15.06 438.85c-68.37,0 -129.78,-36.91 -129.78,-104.59 0,-74.85 55.61,-133.3 122.82,-169.19 44.03,39.99 139.04,135.35 188.87,191.74 -44.03,49.22 -110.07,82.03 -180.76,82.03l-1.16 0zm426.4 -168.16c0,130.22 95.01,198.92 224.79,198.92 41.71,0 70.68,-3.08 86.9,-7.18 39.39,-10.25 96.17,-30.76 126.3,-45.11 3.48,-1.02 5.8,-6.15 5.8,-13.33 0,-3.07 -1.16,-4.1 -3.48,-3.07 -33.6,11.28 -70.68,22.56 -103.12,27.69 -15.06,4.1 -41.71,7.18 -68.37,7.18 -97.33,0 -170.33,-57.42 -170.33,-175.34 0,-108.69 54.46,-250.19 147.16,-336.32 47.51,-41.02 106.6,-68.7 156.42,-68.7 32.45,0 46.35,6.15 56.78,15.38 5.79,5.13 8.11,10.25 10.43,19.48 6.95,32.81 15.06,70.75 23.17,106.64 0,2.05 1.16,3.08 3.48,3.08 3.48,0 11.59,-4.1 12.74,-8.2l16.22 -130.22c1.16,-5.13 0,-7.18 -3.47,-10.26 -19.7,-11.28 -52.14,-17.43 -97.33,-17.43 -91.54,0 -179.6,34.86 -246.81,85.11 -106.6,84.08 -177.28,225.58 -177.28,350.67l0 1.03z"/>
   <circle class="fil2 str0" transform="matrix(-0.313624 0.0346086 0.0346086 0.313624 7495.64 3196.6)" r="101.16"/>
   <circle class="fil2 str0" transform="matrix(-0.314345 0.0346923 0.0346881 0.314383 2091.46 3203.01)" r="101.16"/>
   <path class="fil3 str1" d="M6417.17 3095.09l70 65.07 70.53 65.56c10.65,9.9 14.95,23.61 11.87,37.82l-20.69 95.37 -20.65 95.16c-3.11,14.32 -12.84,25.07 -26.78,29.59l-90.87 29.47 -90.39 29.31c-14.19,4.6 -28.69,1.39 -39.61,-8.76l-70 -65.07 -70.53 -65.56c-10.65,-9.9 -14.95,-23.61 -11.87,-37.82l20.69 -95.37 20.65 -95.16c3.11,-14.32 12.84,-25.07 26.78,-29.59l90.87 -29.47 90.39 -29.31c14.19,-4.6 28.69,-1.39 39.61,8.76z"/>
   <path class="fil2" d="M6392.27 3186l39.12 36.37 39.52 36.74c7.99,7.43 11.22,17.71 8.91,28.37l-11.61 53.48 -11.57 53.33c-2.33,10.74 -9.63,18.81 -20.09,22.2l-50.86 16.49 -50.5 16.37c-10.65,3.45 -21.52,1.05 -29.72,-6.57l-39.12 -36.37 -39.52 -36.74c-7.99,-7.43 -11.22,-17.71 -8.91,-28.37l11.61 -53.48 11.57 -53.33c2.33,-10.74 9.63,-18.81 20.09,-22.2l50.86 -16.49 50.5 -16.37c10.65,-3.45 21.52,-1.05 29.72,6.57z"/>
   <path class="fil3 str1" d="M9627.5 3123.77l63.08 58.64 63.61 59.12c10.65,9.9 14.95,23.61 11.87,37.82l-18.67 86.02 -18.62 85.82c-3.11,14.32 -12.84,25.08 -26.78,29.6l-81.92 26.57 -81.44 26.41c-14.19,4.6 -28.69,1.39 -39.61,-8.76l-63.08 -58.64 -63.61 -59.12c-10.65,-9.9 -14.95,-23.61 -11.87,-37.82l18.67 -86.02 18.62 -85.82c3.11,-14.32 12.84,-25.08 26.78,-29.6l81.92 -26.57 81.44 -26.41c14.19,-4.6 28.69,-1.39 39.61,8.76z"/>
   <rect class="fil2" x="412.64" y="3678.89" width="7191.9" height="23.77" rx="6.55" ry="10"/>
   <path class="fil2" d="M10047.61 3673.6l-2150.87 0 0 23.77 2150.87 0c5.5,0 10,-4.5 10,-10l0 -3.77c0,-5.5 -4.5,-10 -10,-10z"/>
   <circle class="fil4 str2" cx="5235.12" cy="1544.17" r="1061.22"/>
   <path class="fil0" d="M4972.68 2082.91c-3.75,4.92 -18.34,40.62 -20.33,48.25 -2.71,10.35 -3.2,19.64 0.37,29.95 2.45,7.06 10.85,14.7 19.96,14.6 21.31,-0.25 26.04,-24.45 20.8,-44.51 -3.19,-12.18 -9.68,-25.03 -14.87,-36.63 -1.19,-2.65 -3.64,-10.03 -5.92,-11.66z"/>
   <path class="fil5" d="M4849.54 1879.33l-0.03 -1.1 0 -236.75 -199.8 -115.34c-7.99,-4.61 -12.9,-13.07 -12.9,-22.3l0 -248.6c-0,-9.17 4.91,-17.69 12.9,-22.3l107.64 -62.17c0,0 0.29,-0.12 0.41,-0.18l94.74 -52.35 0 -110.38c0,-14.24 11.5,-25.74 25.74,-25.74 14.24,0 25.8,11.5 25.8,25.74l-0 109.44 203.08 117.21c0.98,0.58 1.92,1.17 2.8,1.8 2.98,2.17 5.37,4.91 7.12,7.94 1.75,3.15 2.98,6.71 3.27,10.44 0.11,1.11 0.18,2.16 0.11,3.21l-1.45 121.99 -0 112.42 54.26 28.61c-10.98,27.56 -22.2,37.54 -33.34,40.04l-49.46 -25.74 -189.35 109.27 0 218.89 189.7 109.44 188.24 -106.3 0 -218.94 -54.07 -29.28c-1.69,-12.92 20.07,-36.37 40.06,-35.23l39.93 20.08c14.65,9.46 23.87,23.35 25.57,44.71l0 218.84c-0.24,2.44 -0.57,4.81 -1,7.12l0 0 -4.2 173.73c17.11,79.23 -36.49,61.05 -31.19,13.29 24.54,-220.27 -123.67,-77.39 -101.65,10.37 15.62,62.27 -30.57,45.76 -19.37,-1.45 17.83,-75.05 -87.86,-90.17 -88.09,30.82 -0.07,36.11 26.44,80.13 -11.48,78.98 -4.13,-6.2 -6.21,-5.39 -7.71,-14.27 -2.42,-14.31 6.19,-33 8.76,-49.77 12.8,-83.55 -61.44,-155.9 -87.19,-118.93 -7.36,10.57 -4.82,22.57 -2.7,34.61 6.08,34.61 -26.45,35.89 -19.39,0.41 1.56,-7.81 6.04,-16.76 5.22,-30.04 -12.17,-155.82 -131.15,-64.98 -78.03,38.38 26.4,68.85 -21.62,91.02 -30.4,54.86l2.1 2.73c0.3,0.39 0.65,0.89 0.98,1.31 4.53,5.91 4.72,7.24 12.68,8.68 -0.09,-0.17 -17.01,-9.91 -13.86,-27.23 -0.19,2.01 -0.29,6.74 -0.67,8.31l-2.81 6.5c-2.91,-45.24 12.44,-67.21 11.88,-108.98 -0.85,-63.7 -20.33,-35.5 -22.82,-106.84l0 0zm-161.18 -390.32l189.54 109.39 189.59 -109.39 0 -109.39 1.28 -107.7 -189.64 -109.5 -96.2 53.17 -94.56 54.58 0 218.88 -0.02 -0.05z"/>
   <path class="fil0" d="M5759.3 910.58c-17.1,8.94 -24.95,5.38 -38.64,19.61 -8.22,8.54 -16.23,19.8 -16.7,35.99l22.28 3.75c16.06,-18.13 11.47,-25.42 36.5,-41.85 21.47,-14.09 41.81,-15.66 69.51,-15.07 2.88,13.18 -0,26.09 -3.46,37.93 -38.6,-3.15 -49.41,12 -64.34,31.65 5.35,8.94 67.06,48.09 47.48,124.36 -10.17,39.61 -43.58,80.49 -97.67,82.88l-14.53 -35.17c56.61,0.88 102.16,-58.87 67.75,-113.42 -29.8,-47.24 -96.36,-47.54 -127.2,-0.17 -32.73,50.28 16.41,102.41 35.07,145.29 26.5,60.87 10.24,117.12 -18.39,153.25 -161.12,204.96 -320.38,116.71 -525.44,293.55 146.26,-164.22 101.56,-313.3 243.32,-465.05 17.09,8.67 40.55,30.54 56.99,43.67l167.61 134.54c15.72,-8.07 46.13,-53.44 50.9,-80.03 17.25,-96.13 -122.65,-159.64 -28.75,-261.57 11.23,-12.19 15.98,-15.24 29.74,-23.14 29.71,-17.07 4.41,-40.26 36.58,-74.74 14.52,-15.56 38.27,-28.86 66.61,-30.78l4.76 34.52z"/>
   <path class="fil0" d="M5560.31 1076.43l8.62 51.14c-27.89,-4.5 -41.84,-17.89 -78.73,-4.74 -29.65,10.57 -39.02,28.15 -59.48,38.44l-26.93 -22.22c10.87,-12.2 23.57,-23.76 38.82,-33.72 8.22,-5.37 14.33,-9.68 23.71,-13.74 8.72,-3.78 19.52,-5.62 27.31,-9.83 -21.94,-18.29 -82.55,-40.26 -116.68,-49.77 -46.28,-12.9 -98.07,-18.61 -151.1,-5.08 -8.76,70.57 48.14,147.84 84.03,169.35 -3.48,11.63 -11.37,23.9 -23.65,30.63 -68.66,-53.73 -112.78,-139.03 -94.33,-229.98 152.28,-45.16 279.08,22.77 368.42,79.52z"/>
   <path class="fil0" d="M5177.63 1110.93c-22.94,6.8 -42.49,17.4 -58.32,28.97 17.38,35.76 73.49,74.12 109.1,92.05 16.19,8.15 30.06,12.01 46.53,19.52 -4.22,11.01 -10.13,21.79 -16.12,33.36 -73.57,-20.26 -152.56,-80.68 -187.02,-149.93l6.72 -9.31c20.32,-23.47 61.61,-44.98 91.58,-50.42l7.54 35.77z"/>
   <path class="fil2" d="M5384.45 1472.85c-48.12,13.69 -97.52,32.86 -144.19,49.56 24.68,-44.79 33.61,-81.54 39.2,-117.21l104.99 67.65z"/>
   <circle class="fil0 str3" transform="matrix(-0.151093 0.0166732 0.0166732 0.151093 5717.39 1071.86)" r="101.16"/>
   <path class="fil2" d="M5498.73 1427.88c-32.24,22.38 -66.81,30.1 -87.33,33.5l-126.26 -81.13c7.13,-31.6 19.29,-58.73 33.6,-83.95l179.99 131.57z"/>
   <path class="fil2" d="M5586.83 1370.08c-22.47,19.31 -45.43,36.38 -74.74,45.06l-186.07 -133.32c11.79,-29.43 26.33,-51.42 46.38,-73.52l214.43 161.78z"/>
   <path class="fil5 str3" d="M4921.98 1881.53c-17.34,-7.77 -51.38,-17.64 -51.38,-33.38 0,-57.71 9.56,47.58 9.56,-10.12 0,-15.7 -13.16,-37.37 4.09,-45.1 269.19,176.21 150.82,-51.87 416.83,-106.43 13.53,-2.78 -0.55,126.92 1.73,153.64 2.04,24.02 -24.5,44.85 -46.86,54.87 -25.31,11.34 -145.19,77.84 -165.19,77.84 -21.7,0 -143.06,-79.78 -168.78,-91.32z"/>
   <path class="fil0" d="M5324.06 2119.48c-3.75,4.92 -18.34,40.62 -20.33,48.25 -2.71,10.35 -3.2,19.64 0.37,29.95 2.45,7.07 10.85,14.71 19.96,14.6 21.31,-0.25 26.04,-24.46 20.79,-44.51 -3.18,-12.18 -9.68,-25.04 -14.87,-36.63 -1.19,-2.65 -3.64,-10.03 -5.92,-11.66z"/>
   <path class="fil6" d="M5218.22 1759.79c-29.16,12.58 -55.88,41.32 -80,88 56.35,-57.86 61.68,-69.17 91.66,-76.77 18.47,-4.67 3.66,-17.84 -11.66,-11.24z"/>
   <circle class="fil3 str4" cx="5235.12" cy="1544.17" r="985.86"/>
   <path class="fil0" d="M4899.35 1223l52.01 32.04 52.54 32.37c10.62,6.54 16.54,17.36 16.33,29.83l-1.06 62.57 -1.06 62.4c-0.21,12.57 -6.6,23.26 -17.57,29.39l-53.35 29.87 -52.98 29.65c-11.17,6.25 -23.9,5.98 -34.8,-0.72l-52.01 -32.04 -52.54 -32.37c-10.62,-6.54 -16.55,-17.36 -16.33,-29.83l1.06 -62.57 1.06 -62.4c0.21,-12.57 6.6,-23.26 17.57,-29.4l53.35 -29.87 52.98 -29.66c11.17,-6.25 23.9,-5.98 34.8,0.73z"/>
  </g>
 </g>
</svg>
