<?xml version="1.0" encoding="UTF-8"?>
<!DOCTYPE svg PUBLIC "-//W3C//DTD SVG 1.1//EN" "http://www.w3.org/Graphics/SVG/1.1/DTD/svg11.dtd">
<!-- Creator: CorelDRAW (Evaluation Version) -->
<svg xmlns="http://www.w3.org/2000/svg" xml:space="preserve" width="10.4702in" height="4.20281in" version="1.1" style="shape-rendering:geometricPrecision; text-rendering:geometricPrecision; image-rendering:optimizeQuality; fill-rule:evenodd; clip-rule:evenodd"
viewBox="0 0 9293.34 3730.39"
 xmlns:xlink="http://www.w3.org/1999/xlink"
 xmlns:xodm="http://www.corel.com/coreldraw/odm/2003">
 <defs>
  <style type="text/css">
   <![CDATA[
    .str1 {stroke:black;stroke-width:53.26;stroke-miterlimit:2.61313}
    .str2 {stroke:#FEFEFE;stroke-width:24.66;stroke-miterlimit:2.61313}
    .str3 {stroke:#FEFEFE;stroke-width:6.16;stroke-miterlimit:2.61313}
    .str0 {stroke:black;stroke-width:6.16;stroke-miterlimit:2.61313}
    .str4 {stroke:#FEFEFE;stroke-width:24.66;stroke-miterlimit:2.61313;stroke-dasharray:123.284834 24.656967 24.656967 24.656967}
    .fil0 {fill:none}
    .fil3 {fill:#FEFEFE}
    .fil2 {fill:black}
    .fil4 {fill:#FEFEFE;fill-rule:nonzero}
    .fil1 {fill:black;fill-rule:nonzero}
   ]]>
  </style>
 </defs>
 <g id="Layer_x0020_1">
  <metadata id="CorelCorpID_0Corel-Layer"/>
  <g id="_1593295858032">
   <rect class="fil0" x="-0" y="-0" width="9293.34" height="3730.39"/>
   <path class="fil1" d="M1096.24 2740.27c0,0.91 1.03,1.82 2.06,1.82 4.11,0 10.28,-2.73 11.31,-5.46l20.57 -116.49c1.03,-4.55 -1.03,-6.37 -5.14,-6.37 -8.23,0 -27.77,0.91 -63.76,1.82 -36,0.91 -89.48,1.82 -166.61,1.82 -80.22,0 -134.73,-0.91 -170.73,-2.73 -36,-0.91 -54.51,-1.82 -61.71,-1.82 -4.12,0 -6.17,0.91 -7.2,6.37l-30.86 113.77c0,2.73 5.15,5.46 9.26,5.46 1.03,0 3.09,-0.91 4.12,-2.73l50.39 -79.18c6.17,-9.1 11.32,-12.74 22.63,-14.56 31.88,-6.37 104.9,-9.1 135.76,-9.1 -11.32,60.07 -34.97,181.11 -48.34,245.73 -14.4,68.26 -44.22,224.8 -51.42,257.56 -2.06,7.28 -7.2,10.92 -13.37,11.83l-51.42 9.1c-3.09,0.91 -6.17,7.28 -6.17,10.01 0,1.82 1.03,1.82 2.05,1.82 18.51,-0.91 54.51,-1.82 94.62,-1.82 45.26,0 84.34,0.91 100.79,1.82 3.08,0 3.08,-0.91 4.11,-2.73 0,-3.64 -2.06,-8.19 -4.11,-9.1l-51.43 -9.1c-5.14,-0.91 -8.23,-2.73 -7.2,-12.74 7.2,-33.67 41.14,-178.38 58.63,-254.83 16.45,-70.08 44.22,-188.39 59.65,-247.55 28.8,0 99.76,3.64 133.7,10.01 9.26,1.82 14.4,6.37 15.43,14.56l14.4 82.82zm126.5 256.65c3.08,-11.83 6.17,-22.75 9.26,-35.49 24.68,-103.75 70.96,-290.32 92.56,-380.43 3.09,-13.65 -2.05,-19.11 -14.4,-19.11 -34.97,0 -106.96,12.74 -130.61,20.02 -2.05,0.91 -3.08,1.82 -3.08,2.73 0,4.55 5.14,10.01 10.28,9.1 12.34,-1.82 29.83,-3.64 42.17,-3.64 7.2,0 11.31,6.37 9.26,16.38 -6.17,30.03 -39.08,191.12 -54.51,267.57 -18.51,89.19 -49.37,237.54 -61.71,290.33 -1.03,3.64 0,6.37 4.11,6.37l35.99 -0.91c16.46,-0.91 21.6,-6.37 25.72,-19.11 6.17,-23.66 21.6,-79.18 30.85,-101.02 40.11,-93.74 143.99,-243 213.92,-243 31.88,0 42.16,25.48 42.16,71.9 0,68.26 -35.99,215.7 -49.36,267.57 -2.06,6.37 -3.09,11.83 -3.09,15.47 0,7.28 5.14,12.74 18.51,12.74 30.85,0 79.19,-6.37 105.93,-20.94 1.03,-0.91 1.03,-1.82 1.03,-2.73 0,-3.64 -3.09,-7.28 -7.2,-6.37 -14.4,3.64 -28.79,5.46 -40.11,5.46 -10.28,0 -13.37,-4.55 -10.28,-15.47 24.68,-81.91 61.71,-211.15 61.71,-288.5 0,-56.43 -19.54,-91.92 -64.79,-91.92 -104.9,0 -207.75,147.44 -243.75,212.97 -5.14,8.19 -10.28,18.2 -16.46,30.03l-4.11 0zm732.26 109.21c0,-1.82 -1.03,-3.64 -3.09,-2.73 -22.63,11.83 -56.57,26.39 -78.16,31.85 -14.4,4.55 -39.08,9.1 -60.68,9.1 -62.74,0 -102.85,-37.31 -102.85,-105.57 0,-21.84 5.14,-50.97 10.28,-70.08 64.79,4.55 129.59,-4.55 181.01,-21.84 61.71,-21.84 99.76,-64.62 99.76,-111.95 0,-43.68 -37.02,-81 -110.04,-81 -145.01,0 -261.23,168.37 -261.23,298.51 0,82.82 57.6,121.96 140.9,121.96 39.08,0 61.71,-4.55 75.08,-8.19 38.05,-12.74 82.28,-34.58 105.93,-48.24 3.09,-1.82 3.09,-7.28 3.09,-10.92l0 -0.91zm-80.22 -334.01c38.05,0 52.45,29.12 52.45,61.89 0,41.86 -32.91,79.18 -77.13,97.38 -33.94,15.47 -79.19,24.57 -125.47,20.93 24.68,-100.11 85.36,-181.11 149.13,-181.11l1.03 0.91zm399.04 -154.57c-2.06,0 -3.09,0.91 -3.09,2.73 0,7.43 2.06,10.16 4.12,11.07l38.05 6.37c5.14,0.91 9.26,4.55 7.2,19.11 -8.23,41.87 -31.88,158.21 -45.25,227.38 -15.43,74.63 -43.2,216.6 -51.42,251.95 -1.03,9.1 -5.14,10.92 -12.34,12.74l-45.25 8.19c-3.09,0.91 -6.17,6.37 -6.17,10.01 0,1.82 1.03,1.82 2.05,1.82 17.49,-0.91 50.4,-1.82 87.42,-1.82 43.2,0 81.25,0.91 93.59,1.82 2.06,0 3.09,-0.91 3.09,-2.73 0,-4.55 -1.03,-8.19 -3.09,-9.1l-42.17 -8.19c-6.17,-0.91 -10.28,-3.64 -8.22,-14.56 12.34,-54.45 41.13,-178.23 56.56,-247.4 15.43,-68.26 42.17,-184.6 57.6,-238.3 2.06,-4.55 6.17,-10.01 12.34,-10.92l37.03 -6.37c5.14,-0.91 7.2,-7.43 7.2,-11.07 0,-1.82 0,-2.73 -2.06,-2.73l-187.18 0zm552.28 136.36c-102.85,0 -204.66,141.98 -243.75,211.15 -4.11,6.37 -9.26,18.2 -16.46,30.03l-4.11 -0.91c3.09,-9.1 7.2,-23.66 10.29,-33.68 14.4,-56.43 34.97,-138.34 45.25,-182.02 4.11,-15.47 -2.06,-24.57 -16.46,-24.57 -42.17,0 -98.73,14.56 -122.39,26.39 -2.05,0.91 -4.11,0.91 -4.11,2.73 0,3.64 5.14,9.1 11.32,8.19 13.37,-4.55 28.79,-8.19 37.02,-8.19 7.2,0 12.34,3.64 10.28,18.2 -6.17,33.67 -18.51,97.38 -29.83,151.99 -10.28,58.25 -35.99,182.02 -42.16,211.15 -1.03,3.64 0,5.46 3.08,5.46l39.08 -0.91c14.4,0 18.51,-5.46 21.6,-16.38 7.2,-26.39 23.66,-83.73 34.97,-108.3 41.14,-93.74 143.99,-237.54 212.89,-237.54 31.88,0 41.14,25.48 41.14,70.08 0,71.9 -34.97,210.23 -50.4,271.21 -1.03,5.46 -2.06,10.01 -2.06,13.65 0,7.28 5.15,12.74 19.54,12.74 29.83,0 78.16,-7.28 104.9,-21.84 1.03,0 2.06,-0.91 2.06,-1.82 0,-3.64 -4.11,-8.19 -7.2,-7.28 -15.43,4.55 -28.8,6.37 -40.11,6.37 -10.28,0 -13.37,-4.55 -10.28,-15.47 21.6,-74.63 60.68,-212.97 60.68,-290.32 0,-56.43 -20.57,-90.1 -63.76,-90.1l-1.03 0zm500.86 55.52c-3.09,-6.37 -8.23,-12.74 -12.34,-17.29 -17.48,-20.93 -45.25,-38.22 -91.53,-38.22 -156.33,0 -258.14,203.86 -258.14,315.81 0,62.8 30.85,104.66 88.45,104.66 93.59,0 174.84,-94.65 228.32,-182.93 5.14,-8.19 9.25,-17.29 13.37,-27.31l3.09 0.91c-3.09,11.83 -8.23,30.03 -10.29,39.13 -9.26,44.59 -22.63,106.48 -28.79,139.24 -1.03,7.28 -2.06,12.74 -2.06,18.2 0,6.37 5.14,12.74 18.51,12.74 32.91,0 77.14,-7.28 103.88,-20.94 1.03,-0.91 2.05,-1.82 2.05,-2.73 0,-3.64 -3.09,-8.19 -7.2,-7.28 -12.34,4.55 -29.83,7.28 -40.11,7.28 -10.28,0 -12.34,-5.46 -10.28,-16.38 8.23,-38.23 37.03,-166.55 53.48,-237.54 22.62,-98.29 55.54,-238.45 75.08,-316.72 3.08,-12.74 -2.06,-18.2 -14.4,-18.2 -34.97,0 -112.11,12.74 -135.76,20.94 -2.06,0 -3.09,0.91 -3.09,1.82 0,5.46 4.12,10.01 10.28,9.1 13.37,-1.82 32.91,-3.64 47.31,-3.64 8.23,0 11.32,5.46 10.28,14.56 -8.23,40.05 -20.57,107.39 -31.88,166.55 -2.05,10.01 -4.11,24.57 -6.17,37.31l-2.06 0.91zm-228.32 324c-34.97,0 -52.45,-27.31 -52.45,-75.54 0,-76.45 65.82,-286.69 177.92,-286.69 49.37,0 78.16,40.96 87.42,68.26 2.05,8.19 3.09,17.29 3.09,23.66 0,8.19 -1.03,19.11 -5.14,27.3 -43.19,111.95 -136.78,243 -209.8,243l-1.03 0zm511.14 -517.85c-31.88,0 -50.39,24.57 -50.39,45.5 0,20.02 19.54,32.76 39.08,32.76 30.86,0 50.39,-22.75 50.39,-44.6 0,-13.65 -9.25,-33.67 -38.05,-33.67l-1.03 0zm0 138.34c-41.13,0 -98.73,14.56 -122.38,26.39 -2.06,0.91 -3.09,0.91 -3.09,2.73 0,3.64 5.14,9.1 10.28,8.19 13.37,-4.55 28.8,-8.19 37.03,-8.19 8.22,0 12.34,4.55 10.28,18.2 -5.14,28.21 -16.46,91.01 -30.85,164.73 -13.37,69.17 -30.86,158.36 -33.94,179.29 -1.02,4.55 -2.05,11.83 -2.05,15.47 0,7.28 4.11,13.65 18.51,13.65 32.91,0 81.25,-7.28 107.99,-21.84 1.02,0 2.05,-0.91 2.05,-1.82 0,-3.64 -3.09,-8.19 -7.2,-7.28 -15.43,4.55 -30.86,6.37 -42.17,6.37 -10.28,0 -13.37,-5.46 -11.31,-16.38 7.2,-30.94 25.71,-105.57 38.05,-163.82 15.43,-66.44 35.99,-149.26 46.28,-191.12 4.12,-16.38 -2.06,-24.57 -16.46,-24.57l-1.03 0zm440.18 56.43l-4.11 0c-3.09,-5.46 -7.2,-11.83 -12.34,-17.29 -16.46,-19.11 -42.16,-39.13 -97.7,-39.13 -155.3,0 -258.15,196.58 -258.15,317.63 0,62.8 29.83,102.85 88.45,102.85 91.53,0 166.61,-96.47 214.95,-177.47 5.14,-8.19 10.29,-19.11 15.43,-29.12l3.08 0.91c-2.05,9.1 -5.14,20.94 -8.22,32.76 -12.35,51.88 -28.8,121.96 -32.91,145.62 -1.03,5.46 -2.06,10.92 -2.06,14.56 0,7.28 6.17,12.74 19.54,12.74 32.91,0 76.11,-6.37 103.88,-20.94 1.03,-0.91 2.06,-1.82 2.06,-2.73 0,-2.73 -3.09,-7.28 -7.2,-6.37 -13.37,3.64 -29.82,6.37 -41.14,6.37 -9.26,0 -11.31,-5.46 -9.26,-15.47 6.17,-27.3 23.65,-93.74 32.91,-134.69 14.4,-59.16 47.31,-191.12 57.6,-229.35 2.05,-9.1 -10.29,-14.56 -14.4,-14.56 -2.05,0 -3.08,0.91 -4.11,1.82l-46.28 51.88zm-113.13 -40.04c50.4,0 73.02,46.41 79.19,75.54 1.03,6.37 1.03,12.74 1.03,20.02 0,8.19 -3.09,21.84 -8.23,34.58 -35.99,90.1 -123.41,232.99 -199.52,232.99 -32.91,0 -51.42,-27.31 -51.42,-73.72 0,-91.92 67.88,-289.42 177.93,-289.42l1.02 0zm601.65 -16.38c-102.84,0 -204.66,141.98 -243.74,211.15 -4.12,6.37 -9.26,18.2 -16.46,30.03l-4.12 -0.91c3.09,-9.1 7.2,-23.66 10.29,-33.68 14.4,-56.43 34.97,-138.34 45.25,-182.02 4.12,-15.47 -2.06,-24.57 -16.46,-24.57 -42.16,0 -98.73,14.56 -122.39,26.39 -2.05,0.91 -4.11,0.91 -4.11,2.73 0,3.64 5.14,9.1 11.32,8.19 13.37,-4.55 28.79,-8.19 37.02,-8.19 7.2,0 12.34,3.64 10.28,18.2 -6.17,33.67 -18.51,97.38 -29.83,151.99 -10.28,58.25 -36,182.02 -42.17,211.15 -1.03,3.64 0,5.46 3.09,5.46l39.08 -0.91c14.4,0 18.51,-5.46 21.6,-16.38 7.2,-26.39 23.66,-83.73 34.97,-108.3 41.14,-93.74 143.99,-237.54 212.89,-237.54 31.88,0 41.14,25.48 41.14,70.08 0,71.9 -34.97,210.23 -50.4,271.21 -1.02,5.46 -2.05,10.01 -2.05,13.65 0,7.28 5.14,12.74 19.54,12.74 29.83,0 78.16,-7.28 104.9,-21.84 1.02,0 2.05,-0.91 2.05,-1.82 0,-3.64 -4.11,-8.19 -7.2,-7.28 -15.43,4.55 -28.8,6.37 -40.11,6.37 -10.28,0 -13.37,-4.55 -10.28,-15.47 21.6,-74.63 60.68,-212.97 60.68,-290.32 0,-56.43 -20.57,-90.1 -63.76,-90.1l-1.03 0zm383.62 -136.52c-2.06,0 -4.11,0.91 -4.11,3.64 0,4.55 1.02,9.1 4.11,9.1l38.05 7.28c4.12,0.91 8.23,4.55 6.17,17.29 -5.15,28.21 -29.83,156.54 -44.23,228.44 -15.43,73.72 -42.17,212.05 -51.42,252.1 -2.06,10.01 -6.17,11.83 -13.37,13.65l-43.2 8.19c-3.09,0.91 -6.17,6.37 -6.17,9.1 0,1.82 1.03,2.73 2.05,2.73 19.54,-0.91 50.4,-1.82 87.42,-1.82 43.2,0 79.19,0.91 97.71,1.82 2.06,0 3.08,-0.91 3.08,-3.64 0,-2.73 -2.05,-7.28 -4.11,-8.19l-48.34 -8.19c-4.11,-0.91 -9.26,-3.64 -7.2,-15.47 12.34,-55.52 38.05,-167.46 52.45,-223.89 1.03,-6.37 5.14,-10.01 13.37,-10.01 56.56,-2.73 219.06,-6.37 260.2,-6.37 -14.4,66.44 -42.16,204.77 -51.42,243.91 -1.03,6.37 -7.2,10.01 -14.4,10.92l-48.34 9.1c-3.09,0.91 -6.17,6.37 -6.17,9.1 0,1.82 0,2.73 2.05,2.73 15.43,-0.91 54.51,-1.82 96.68,-1.82 38.05,0 74.05,0.91 87.42,1.82 3.09,0 3.09,-0.91 3.09,-3.64 0,-3.64 -1.03,-7.28 -3.09,-8.19l-41.14 -8.19c-5.14,-0.91 -9.26,-3.64 -8.23,-11.83 9.26,-37.31 42.17,-179.29 58.62,-249.37 15.43,-67.35 46.28,-189.3 59.65,-235.72 4.11,-11.83 7.2,-13.65 13.37,-14.56l33.94 -7.28c3.09,0 7.2,-7.28 7.2,-10.01 0,-1.82 -1.03,-2.73 -3.09,-2.73l-186.15 0c-2.06,0 -3.08,0.91 -3.08,2.73 0,6.37 1.02,10.01 4.11,10.01l40.11 7.28c5.14,0.91 9.26,4.55 8.23,15.47 -10.28,44.59 -36,180.2 -46.28,223.89 -47.31,0.91 -213.92,-1.82 -255.06,-3.64 -8.22,0 -13.37,-1.82 -11.31,-10.01 8.23,-40.96 34.97,-158.36 51.42,-214.79 1.03,-5.46 4.12,-9.1 11.32,-10.92l44.22 -7.28c4.11,-0.91 7.2,-6.37 7.2,-10.92 0,-0.91 -1.03,-1.82 -3.09,-1.82l-190.26 0zm1359.62 136.52c-102.85,0 -204.66,141.98 -243.75,211.15 -4.12,6.37 -9.26,18.2 -16.46,30.03l-4.11 -0.91c3.09,-9.1 7.2,-23.66 10.28,-33.68 14.4,-56.43 34.97,-138.34 45.25,-182.02 4.12,-15.47 -2.05,-24.57 -16.45,-24.57 -42.17,0 -98.73,14.56 -122.39,26.39 -2.05,0.91 -4.11,0.91 -4.11,2.73 0,3.64 5.14,9.1 11.31,8.19 13.37,-4.55 28.8,-8.19 37.03,-8.19 7.2,0 12.34,3.64 10.28,18.2 -6.17,33.67 -18.51,97.38 -29.83,151.99 -10.28,58.25 -35.99,182.02 -42.16,211.15 -1.03,3.64 0,5.46 3.08,5.46l39.08 -0.91c14.4,0 18.51,-5.46 21.6,-16.38 7.21,-26.39 23.66,-83.73 34.97,-108.3 41.14,-93.74 143.98,-237.54 212.89,-237.54 31.88,0 41.14,25.48 41.14,70.08 0,71.9 -34.97,210.23 -50.39,271.21 -1.03,5.46 -2.06,10.01 -2.06,13.65 0,7.28 5.14,12.74 19.54,12.74 29.83,0 78.16,-7.28 104.9,-21.84 1.03,0 2.06,-0.91 2.06,-1.82 0,-3.64 -4.12,-8.19 -7.2,-7.28 -15.43,4.55 -28.8,6.37 -40.11,6.37 -10.28,0 -13.37,-4.55 -10.28,-15.47 21.6,-74.63 60.68,-212.97 60.68,-290.32 0,-56.43 -20.57,-90.1 -63.76,-90.1l-1.03 0zm468.98 352.21c0,-1.82 -1.03,-3.64 -3.09,-2.73 -22.63,11.83 -56.57,26.39 -78.16,31.85 -14.4,4.55 -39.08,9.1 -60.68,9.1 -62.74,0 -102.85,-37.31 -102.85,-105.57 0,-21.84 5.14,-50.97 10.28,-70.08 64.79,4.55 129.59,-4.55 181.01,-21.84 61.71,-21.84 99.76,-64.62 99.76,-111.95 0,-43.68 -37.03,-81 -110.04,-81 -145.02,0 -261.23,168.37 -261.23,298.51 0,82.82 57.6,121.96 140.9,121.96 39.08,0 61.71,-4.55 75.08,-8.19 38.05,-12.74 82.28,-34.58 105.93,-48.24 3.09,-1.82 3.09,-7.28 3.09,-10.92l0 -0.91zm-80.22 -334.01c38.05,0 52.45,29.12 52.45,61.89 0,41.86 -32.91,79.18 -77.13,97.38 -33.94,15.47 -79.19,24.57 -125.47,20.93 24.68,-100.11 85.36,-181.11 149.13,-181.11l1.03 0.91zm343.5 353.12c-1.03,-10.01 -2.05,-19.11 -3.09,-27.31 -9.26,-81 -26.74,-233.9 -34.97,-321.27 -1.03,-13.65 -5.14,-22.75 -18.51,-22.75 -42.17,0 -95.65,14.56 -117.24,25.48 -2.06,0.91 -4.11,0.91 -4.11,2.73 0,3.64 5.14,9.1 11.31,7.28 11.32,-3.64 24.68,-6.37 33.94,-6.37 7.2,0 12.34,4.55 14.4,17.29 13.37,93.74 47.31,303.98 62.74,372.24 2.05,10.01 2.05,14.56 -3.09,20.93 -45.25,53.7 -109.02,102.84 -155.3,102.84 -21.6,0 -39.08,-9.1 -51.42,-26.39 -1.03,-0.91 -1.03,-1.82 -2.06,-1.82 -4.11,0 -12.34,6.37 -12.34,10.92 0,13.65 6.17,40.05 15.43,49.15 7.2,7.28 16.46,10.01 30.85,10.01 84.33,0 176.89,-103.75 237.57,-182.02 76.11,-94.65 179.98,-274.85 215.98,-336.74 14.4,-25.49 24.68,-48.24 24.68,-59.16 0,-3.64 -2.05,-6.37 -7.2,-6.37 -16.46,0 -46.28,10.01 -58.62,18.2 -3.09,2.73 -5.15,4.55 -5.15,8.19 0,10.01 -9.25,35.49 -15.42,50.97 -31.88,81 -90.5,192.03 -135.76,265.75 -4.12,7.28 -11.32,18.2 -17.48,28.21l-5.14 0zm489.55 -250.28c8.23,-2.73 17.48,-6.37 22.62,-10.01 64.79,-29.12 136.79,-77.36 136.79,-149.26 0,-59.16 -53.48,-91.01 -122.39,-91.01 -92.56,0 -186.15,63.71 -186.15,149.26 0,47.33 29.82,80.09 55.53,104.66 4.11,3.64 8.23,6.37 11.32,9.1l0 2.73c-9.26,3.64 -19.54,8.19 -28.8,11.83 -73.02,30.03 -142.96,87.37 -142.96,164.73 0,75.54 76.11,107.4 158.38,107.4 101.81,0 160.44,-38.23 210.83,-84.64 24.68,26.39 53.48,59.16 73.02,83.73 3.08,2.73 14.4,4.55 27.77,4.55 8.23,0 12.34,-1.82 10.28,-5.46 -19.54,-38.23 -49.37,-83.73 -74.05,-119.22 39.08,-42.78 64.79,-88.28 81.25,-121.96 9.26,-17.29 18.51,-42.78 18.51,-50.97 0,-2.73 -2.06,-5.46 -6.17,-5.46 -17.49,0 -37.03,10.01 -46.28,19.11 -3.09,1.82 -4.11,3.64 -4.11,5.46 0,9.1 -3.09,23.66 -7.2,35.49 -8.23,28.21 -24.68,68.26 -49.37,101.93 -30.86,-45.5 -88.45,-111.03 -138.84,-159.27l0 -2.73zm-74.05 -117.4c0,-64.62 49.36,-117.4 104.9,-117.4 38.05,0 63.76,26.39 63.76,70.08 0,70.08 -48.34,122.86 -110.04,152.9 -35.99,-36.41 -58.62,-65.53 -58.62,-104.66l0 -0.91zm13.37 389.52c-60.68,0 -115.19,-32.76 -115.19,-92.83 0,-66.44 49.36,-118.32 109.02,-150.17 39.08,35.49 123.41,120.13 167.64,170.19 -39.08,43.68 -97.7,72.81 -160.44,72.81l-1.03 0zm378.47 -149.26c0,115.58 84.33,176.56 199.52,176.56 37.02,0 62.74,-2.73 77.13,-6.37 34.97,-9.1 85.36,-27.3 112.1,-40.04 3.09,-0.91 5.14,-5.46 5.14,-11.83 0,-2.73 -1.03,-3.64 -3.09,-2.73 -29.83,10.01 -62.74,20.02 -91.53,24.57 -13.37,3.64 -37.02,6.37 -60.68,6.37 -86.39,0 -151.18,-50.97 -151.18,-155.63 0,-96.47 48.34,-222.07 130.62,-298.51 42.17,-36.41 94.62,-60.98 138.84,-60.98 28.8,0 41.14,5.46 50.4,13.65 5.14,4.55 7.2,9.1 9.26,17.29 6.17,29.12 13.37,62.8 20.57,94.65 0,1.82 1.03,2.73 3.09,2.73 3.09,0 10.29,-3.64 11.31,-7.28l14.4 -115.58c1.03,-4.55 0,-6.37 -3.08,-9.1 -17.49,-10.01 -46.28,-15.47 -86.39,-15.47 -81.25,0 -159.41,30.94 -219.06,75.54 -94.62,74.63 -157.35,200.22 -157.35,311.26l0 0.91z"/>
   <circle class="fil2 str0" transform="matrix(-0.313624 0.0346086 0.0346086 0.313624 6653.1 2837.28)" r="89.79"/>
   <circle class="fil2 str0" transform="matrix(-0.314345 0.0346923 0.0346881 0.314383 1856.37 2842.97)" r="89.79"/>
   <path class="fil0 str1" d="M5695.85 2747.19l62.14 57.76 62.6 58.19c9.45,8.79 13.27,20.96 10.54,33.57l-18.37 84.65 -18.33 84.46c-2.76,12.71 -11.4,22.26 -23.77,26.27l-80.66 26.16 -80.23 26.02c-12.59,4.09 -25.46,1.24 -35.16,-7.78l-62.14 -57.76 -62.6 -58.19c-9.45,-8.79 -13.27,-20.96 -10.54,-33.57l18.37 -84.65 18.33 -84.46c2.76,-12.71 11.4,-22.26 23.77,-26.27l80.66 -26.16 80.23 -26.02c12.59,-4.09 25.46,-1.24 35.16,7.78z"/>
   <path class="fil2" d="M5673.75 2827.88l34.72 32.28 35.08 32.61c7.09,6.59 9.96,15.72 7.9,25.18l-10.3 47.47 -10.27 47.33c-2.07,9.53 -8.55,16.7 -17.83,19.71l-45.14 14.64 -44.83 14.53c-9.45,3.06 -19.1,0.93 -26.38,-5.83l-34.72 -32.28 -35.08 -32.61c-7.09,-6.59 -9.96,-15.72 -7.9,-25.18l10.3 -47.47 10.27 -47.33c2.07,-9.53 8.55,-16.7 17.83,-19.71l45.14 -14.64 44.83 -14.53c9.45,-3.06 19.1,-0.93 26.38,5.83z"/>
   <path class="fil0 str1" d="M8545.32 2772.64l55.99 52.05 56.46 52.48c9.45,8.79 13.27,20.96 10.53,33.57l-16.57 76.35 -16.53 76.17c-2.76,12.71 -11.4,22.26 -23.77,26.27l-72.71 23.58 -72.29 23.44c-12.59,4.09 -25.46,1.24 -35.16,-7.78l-55.99 -52.05 -56.46 -52.48c-9.45,-8.79 -13.27,-20.96 -10.53,-33.57l16.57 -76.35 16.53 -76.17c2.76,-12.71 11.4,-22.26 23.77,-26.27l72.71 -23.58 72.29 -23.44c12.59,-4.09 25.46,-1.24 35.16,7.78z"/>
   <rect class="fil2" x="366.26" y="3265.36" width="6383.49" height="21.1" rx="5.81" ry="8.88"/>
   <path class="fil2" d="M8918.21 3260.67l-1909.1 0 0 21.1 1909.1 0c4.88,0 8.88,-3.99 8.88,-8.88l0 -3.35c0,-4.88 -3.99,-8.88 -8.88,-8.88z"/>
   <circle class="fil2 str2" cx="4646.67" cy="1370.6" r="941.94"/>
   <path class="fil3" d="M4413.72 1848.78c-3.33,4.37 -16.28,36.06 -18.05,42.83 -2.4,9.19 -2.84,17.43 0.33,26.59 2.18,6.27 9.63,13.05 17.71,12.96 18.91,-0.22 23.11,-21.7 18.46,-39.51 -2.83,-10.81 -8.59,-22.22 -13.2,-32.52 -1.05,-2.35 -3.23,-8.9 -5.26,-10.35z"/>
   <path class="fil4" d="M4304.43 1668.09l-0.02 -0.98 0 -210.14 -177.34 -102.37c-7.09,-4.09 -11.45,-11.61 -11.45,-19.79l0 -220.66c-0,-8.14 4.35,-15.7 11.45,-19.79l95.54 -55.18c0,0 0.26,-0.1 0.36,-0.16l84.09 -46.47 0 -97.97c0,-12.64 10.2,-22.85 22.85,-22.85 12.64,0 22.9,10.2 22.9,22.85l-0 97.14 180.25 104.03c0.87,0.52 1.71,1.03 2.48,1.6 2.64,1.92 4.77,4.35 6.32,7.05 1.56,2.79 2.64,5.95 2.9,9.27 0.1,0.99 0.16,1.92 0.1,2.85l-1.29 108.28 -0 99.78 48.16 25.39c-9.74,24.46 -19.71,33.32 -29.59,35.54l-43.9 -22.84 -168.07 96.99 0 194.28 168.37 97.14 167.08 -94.35 0 -194.33 -48 -25.99c-1.5,-11.47 17.81,-32.28 35.55,-31.27l35.44 17.82c13,8.4 21.18,20.73 22.69,39.68l0 194.24c-0.21,2.16 -0.5,4.27 -0.88,6.32l0 0 -3.73 154.2c15.19,70.33 -32.39,54.19 -27.68,11.79 21.78,-195.51 -109.77,-68.69 -90.22,9.21 13.87,55.27 -27.13,40.61 -17.19,-1.29 15.83,-66.61 -77.99,-80.03 -78.19,27.35 -0.06,32.05 23.47,71.12 -10.19,70.1 -3.66,-5.5 -5.51,-4.79 -6.85,-12.67 -2.15,-12.71 5.5,-29.29 7.78,-44.17 11.36,-74.16 -54.54,-138.37 -77.38,-105.56 -6.53,9.38 -4.28,20.03 -2.4,30.72 5.4,30.72 -23.48,31.86 -17.21,0.37 1.38,-6.94 5.36,-14.88 4.63,-26.66 -10.8,-138.3 -116.41,-57.68 -69.26,34.07 23.43,61.11 -19.19,80.79 -26.98,48.7l1.86 2.42c0.27,0.35 0.58,0.79 0.87,1.16 4.02,5.25 4.19,6.43 11.26,7.71 -0.08,-0.15 -15.1,-8.79 -12.3,-24.17 -0.17,1.78 -0.26,5.98 -0.59,7.38l-2.5 5.77c-2.58,-40.15 11.04,-59.65 10.55,-96.73 -0.76,-56.54 -18.04,-31.51 -20.26,-94.83l0 0zm-143.06 -346.45l168.23 97.09 168.28 -97.09 0 -97.09 1.14 -95.59 -168.32 -97.19 -85.38 47.19 -83.93 48.45 0 194.27 -0.02 -0.05z"/>
   <path class="fil3" d="M5111.92 808.23c-15.18,7.94 -22.14,4.78 -34.29,17.4 -7.3,7.58 -14.41,17.57 -14.83,31.95l19.78 3.33c14.25,-16.09 10.18,-22.56 32.4,-37.14 19.06,-12.5 37.11,-13.9 61.7,-13.38 2.55,11.7 -0,23.16 -3.07,33.67 -34.26,-2.79 -43.86,10.65 -57.11,28.1 4.75,7.94 59.52,42.68 42.14,110.38 -9.03,35.16 -38.68,71.44 -86.69,73.56l-12.89 -31.21c50.25,0.78 90.67,-52.26 60.13,-100.67 -26.45,-41.93 -85.53,-42.2 -112.9,-0.15 -29.05,44.63 14.56,90.9 31.13,128.96 23.52,54.03 9.09,103.96 -16.33,136.02 -143.01,181.92 -284.37,103.59 -466.38,260.55 129.82,-145.76 90.15,-278.08 215.97,-412.78 15.17,7.69 35.99,27.1 50.58,38.76l148.77 119.41c13.95,-7.16 40.94,-47.43 45.18,-71.03 15.31,-85.32 -108.86,-141.69 -25.52,-232.17 9.97,-10.82 14.19,-13.53 26.4,-20.54 26.37,-15.15 3.91,-35.74 32.47,-66.34 12.88,-13.81 33.97,-25.61 59.12,-27.32l4.23 30.64z"/>
   <path class="fil3" d="M4935.3 955.43l7.65 45.39c-24.75,-4 -37.14,-15.88 -69.88,-4.21 -26.31,9.38 -34.64,24.99 -52.79,34.12l-23.91 -19.73c9.64,-10.83 20.92,-21.09 34.46,-29.93 7.3,-4.77 12.72,-8.59 21.04,-12.2 7.74,-3.35 17.33,-4.99 24.24,-8.73 -19.47,-16.23 -73.27,-35.73 -103.57,-44.17 -41.08,-11.45 -87.05,-16.52 -134.12,-4.51 -7.78,62.63 42.73,131.22 74.58,150.32 -3.09,10.33 -10.1,21.21 -20.99,27.19 -60.94,-47.69 -100.1,-123.4 -83.73,-204.13 135.16,-40.08 247.71,20.21 327.01,70.58z"/>
   <path class="fil3" d="M4595.64 986.06c-20.37,6.03 -37.72,15.45 -51.77,25.72 15.43,31.74 65.23,65.79 96.84,81.7 14.37,7.23 26.68,10.66 41.3,17.32 -3.75,9.77 -8.99,19.34 -14.31,29.61 -65.3,-17.98 -135.41,-71.61 -166,-133.08l5.97 -8.27c18.04,-20.83 54.69,-39.93 81.28,-44.75l6.69 31.75z"/>
   <path class="fil2" d="M4779.21 1307.3c-42.71,12.15 -86.56,29.17 -127.98,43.99 21.91,-39.76 29.83,-72.37 34.79,-104.04l93.19 60.05z"/>
   <circle class="fil3 str3" transform="matrix(-0.151093 0.0166732 0.0166732 0.151093 5074.73 951.377)" r="89.79"/>
   <path class="fil2" d="M4880.65 1267.38c-28.62,19.87 -59.3,26.72 -77.52,29.74l-112.07 -72.01c6.33,-28.05 17.12,-52.13 29.83,-74.51l159.76 116.78z"/>
   <path class="fil2" d="M4958.84 1216.08c-19.94,17.14 -40.33,32.29 -66.34,40l-165.16 -118.34c10.47,-26.12 23.37,-45.64 41.16,-65.25l190.33 143.59z"/>
   <path class="fil4" d="M4368.72 1670.04c-15.39,-6.9 -45.6,-15.66 -45.6,-29.63 0,-51.22 8.48,42.23 8.48,-8.98 0,-13.93 -11.68,-33.17 3.63,-40.03 238.93,156.41 133.87,-46.04 369.98,-94.47 12.01,-2.46 -0.49,112.65 1.53,136.37 1.81,21.32 -21.75,39.81 -41.59,48.7 -22.47,10.07 -128.87,69.09 -146.62,69.09 -19.26,0 -126.98,-70.82 -149.81,-81.05z"/>
   <path class="fil3" d="M4725.6 1881.24c-3.33,4.37 -16.28,36.06 -18.05,42.82 -2.4,9.19 -2.84,17.43 0.33,26.59 2.17,6.27 9.63,13.06 17.71,12.96 18.91,-0.22 23.11,-21.71 18.45,-39.51 -2.82,-10.81 -8.59,-22.22 -13.2,-32.52 -1.05,-2.35 -3.23,-8.9 -5.26,-10.35z"/>
   <path class="fil2" d="M4631.66 1561.98c-25.88,11.16 -49.6,36.68 -71.01,78.11 50.02,-51.36 54.75,-61.4 81.36,-68.14 16.39,-4.15 3.25,-15.84 -10.35,-9.97z"/>
   <circle class="fil0 str4" cx="4646.67" cy="1370.6" r="875.04"/>
   <path class="fil3" d="M4348.64 1085.53l46.16 28.44 46.63 28.73c9.42,5.81 14.68,15.41 14.5,26.48l-0.94 55.54 -0.94 55.38c-0.19,11.15 -5.86,20.64 -15.6,26.09l-47.36 26.51 -47.03 26.32c-9.91,5.55 -21.21,5.31 -30.89,-0.64l-46.16 -28.44 -46.63 -28.73c-9.43,-5.81 -14.69,-15.41 -14.5,-26.48l0.94 -55.54 0.94 -55.38c0.19,-11.15 5.86,-20.65 15.6,-26.09l47.36 -26.51 47.03 -26.32c9.91,-5.55 21.21,-5.31 30.89,0.65z"/>
  </g>
 </g>
</svg>
