<?xml version="1.0" encoding="UTF-8"?>
<!DOCTYPE svg PUBLIC "-//W3C//DTD SVG 1.1//EN" "http://www.w3.org/Graphics/SVG/1.1/DTD/svg11.dtd">
<!-- Creator: CorelDRAW (Evaluation Version) -->
<svg xmlns="http://www.w3.org/2000/svg" xml:space="preserve" width="10.4702in" height="4.20281in" version="1.1" style="shape-rendering:geometricPrecision; text-rendering:geometricPrecision; image-rendering:optimizeQuality; fill-rule:evenodd; clip-rule:evenodd"
viewBox="0 0 3287.88 1319.77"
 xmlns:xlink="http://www.w3.org/1999/xlink"
 xmlns:xodm="http://www.corel.com/coreldraw/odm/2003">
 <defs>
  <style type="text/css">
   <![CDATA[
    .str3 {stroke:#FFC30B;stroke-width:18.84;stroke-miterlimit:2.61313}
    .str1 {stroke:#FFC30B;stroke-width:8.72;stroke-miterlimit:2.61313}
    .str0 {stroke:#FFC30B;stroke-width:2.18;stroke-miterlimit:2.61313}
    .str2 {stroke:#FFC30B;stroke-width:8.72;stroke-miterlimit:2.61313;stroke-dasharray:43.616796 8.723359 8.723359 8.723359}
    .fil6 {fill:none}
    .fil5 {fill:#FEFEFE}
    .fil1 {fill:#FEC42B}
    .fil0 {fill:black}
    .fil3 {fill:#FFC30B}
    .fil2 {fill:#FFC30B;fill-rule:nonzero}
    .fil4 {fill:#FFC30B;fill-rule:nonzero}
   ]]>
  </style>
 </defs>
 <g id="Layer_x0020_1">
  <metadata id="CorelCorpID_0Corel-Layer"/>
  <rect class="fil0" x="-0" y="-0" width="3287.88" height="1319.77"/>
  <path class="fil1" d="M1572.58 641.17c-1.18,1.55 -5.76,12.76 -6.39,15.15 -0.85,3.25 -1.01,6.17 0.12,9.41 0.77,2.22 3.41,4.62 6.27,4.58 6.69,-0.08 8.18,-7.68 6.53,-13.98 -1,-3.82 -3.04,-7.86 -4.67,-11.5 -0.37,-0.83 -1.14,-3.15 -1.86,-3.66z"/>
  <path class="fil2" d="M1533.92 577.24l-0.01 -0.35 0 -74.35 -62.74 -36.22c-2.51,-1.45 -4.05,-4.11 -4.05,-7l0 -78.07c-0,-2.88 1.54,-5.55 4.05,-7l33.8 -19.52c0,0 0.09,-0.04 0.13,-0.06l29.75 -16.44 0 -34.66c0,-4.47 3.61,-8.08 8.08,-8.08 4.47,0 8.1,3.61 8.1,8.08l-0 34.37 63.77 36.81c0.31,0.18 0.6,0.37 0.88,0.57 0.93,0.68 1.69,1.54 2.24,2.49 0.55,0.99 0.93,2.11 1.03,3.28 0.04,0.35 0.06,0.68 0.04,1.01l-0.46 38.31 -0 35.3 17.04 8.98c-3.45,8.65 -6.97,11.79 -10.47,12.57l-15.53 -8.08 -59.46 34.31 0 68.73 59.57 34.37 59.11 -33.38 0 -68.75 -16.98 -9.19c-0.53,-4.06 6.3,-11.42 12.58,-11.06l12.54 6.31c4.6,2.97 7.49,7.33 8.03,14.04l0 68.72c-0.07,0.77 -0.18,1.51 -0.31,2.24l0 0 -1.32 54.56c5.37,24.88 -11.46,19.17 -9.79,4.17 7.71,-69.17 -38.84,-24.3 -31.92,3.26 4.91,19.55 -9.6,14.37 -6.08,-0.46 5.6,-23.57 -27.59,-28.31 -27.66,9.68 -0.02,11.34 8.3,25.16 -3.6,24.8 -1.3,-1.95 -1.95,-1.69 -2.42,-4.48 -0.76,-4.5 1.94,-10.36 2.75,-15.63 4.02,-26.24 -19.29,-48.96 -27.38,-37.35 -2.31,3.32 -1.51,7.09 -0.85,10.87 1.91,10.87 -8.31,11.27 -6.09,0.13 0.49,-2.45 1.9,-5.26 1.64,-9.43 -3.82,-48.93 -41.18,-20.41 -24.5,12.05 8.29,21.62 -6.79,28.58 -9.55,17.23l0.66 0.86c0.09,0.12 0.21,0.28 0.31,0.41 1.42,1.86 1.48,2.27 3.98,2.73 -0.03,-0.05 -5.34,-3.11 -4.35,-8.55 -0.06,0.63 -0.09,2.12 -0.21,2.61l-0.88 2.04c-0.91,-14.21 3.91,-21.1 3.73,-34.22 -0.27,-20 -6.38,-11.15 -7.17,-33.55l0 0zm-50.61 -122.57l59.52 34.35 59.54 -34.35 0 -34.35 0.4 -33.82 -59.55 -34.38 -30.21 16.7 -29.69 17.14 0 68.73 -0.01 -0.02z"/>
  <path class="fil3 str0" d="M1819.6 273.03c-5.37,2.81 -7.83,1.69 -12.13,6.16 -2.58,2.68 -5.1,6.22 -5.25,11.3l7 1.18c5.04,-5.69 3.6,-7.98 11.46,-13.14 6.74,-4.42 13.13,-4.92 21.83,-4.73 0.9,4.14 -0,8.19 -1.09,11.91 -12.12,-0.99 -15.52,3.77 -20.2,9.94 1.68,2.81 21.06,15.1 14.91,39.05 -3.19,12.44 -13.68,25.27 -30.67,26.03l-4.56 -11.04c17.78,0.28 32.08,-18.49 21.27,-35.62 -9.36,-14.83 -30.26,-14.93 -39.94,-0.05 -10.28,15.79 5.15,32.16 11.01,45.62 8.32,19.12 3.21,36.78 -5.78,48.12 -50.59,64.36 -100.61,36.65 -165,92.18 45.93,-51.57 31.89,-98.38 76.41,-146.04 5.37,2.72 12.73,9.59 17.9,13.71l52.63 42.25c4.94,-2.53 14.49,-16.78 15.98,-25.13 5.42,-30.19 -38.51,-50.13 -9.03,-82.14 3.53,-3.83 5.02,-4.79 9.34,-7.27 9.33,-5.36 1.38,-12.64 11.49,-23.47 4.56,-4.89 12.02,-9.06 20.92,-9.66l1.5 10.84z"/>
  <path class="fil3 str0" d="M1757.11 325.11l2.71 16.06c-8.76,-1.41 -13.14,-5.62 -24.72,-1.49 -9.31,3.32 -12.25,8.84 -18.68,12.07l-8.46 -6.98c3.41,-3.83 7.4,-7.46 12.19,-10.59 2.58,-1.69 4.5,-3.04 7.45,-4.31 2.74,-1.19 6.13,-1.77 8.58,-3.09 -6.89,-5.74 -25.92,-12.64 -36.64,-15.63 -14.53,-4.05 -30.8,-5.84 -47.45,-1.59 -2.75,22.16 15.12,46.42 26.39,53.18 -1.09,3.65 -3.57,7.51 -7.43,9.62 -21.56,-16.87 -35.41,-43.66 -29.62,-72.22 47.82,-14.18 87.64,7.15 115.69,24.97z"/>
  <path class="fil3 str0" d="M1636.94 335.95c-7.21,2.13 -13.34,5.46 -18.31,9.1 5.46,11.23 23.08,23.27 34.26,28.91 5.08,2.56 9.44,3.77 14.61,6.13 -1.33,3.46 -3.18,6.84 -5.06,10.48 -23.1,-6.36 -47.91,-25.33 -58.73,-47.08l2.11 -2.93c6.38,-7.37 19.35,-14.13 28.76,-15.83l2.37 11.23z"/>
  <path class="fil0 str0" d="M1701.89 449.6c-15.11,4.3 -30.62,10.32 -45.28,15.56 7.75,-14.07 10.55,-25.61 12.31,-36.81l32.97 21.24z"/>
  <circle class="fil3 str0" transform="matrix(-0.151093 0.0166732 0.0166732 0.151093 1806.44 323.678)" r="31.77"/>
  <path class="fil0 str0" d="M1737.77 435.48c-10.13,7.03 -20.98,9.45 -27.42,10.52l-39.65 -25.48c2.24,-9.92 6.06,-18.44 10.55,-26.36l56.52 41.32z"/>
  <path class="fil0 str0" d="M1765.44 417.33c-7.06,6.06 -14.27,11.42 -23.47,14.15l-58.43 -41.87c3.7,-9.24 8.27,-16.15 14.56,-23.09l67.34 50.8z"/>
  <path class="fil4 str0" d="M1556.66 577.93c-5.45,-2.44 -16.13,-5.54 -16.13,-10.48 0,-18.12 3,14.94 3,-3.18 0,-4.93 -4.13,-11.73 1.28,-14.16 84.53,55.33 47.36,-16.29 130.89,-33.42 4.25,-0.87 -0.17,39.85 0.54,48.25 0.64,7.54 -7.69,14.08 -14.71,17.23 -7.95,3.56 -45.59,24.44 -51.87,24.44 -6.81,0 -44.92,-25.05 -53,-28.68z"/>
  <path class="fil1" d="M1682.92 652.65c-1.18,1.55 -5.76,12.76 -6.39,15.15 -0.85,3.25 -1.01,6.17 0.12,9.41 0.77,2.22 3.41,4.62 6.27,4.59 6.69,-0.08 8.18,-7.68 6.53,-13.98 -1,-3.82 -3.04,-7.86 -4.67,-11.5 -0.37,-0.83 -1.14,-3.15 -1.86,-3.66z"/>
  <path class="fil5" d="M1649.69 539.7c-9.16,3.95 -17.55,12.98 -25.12,27.64 17.7,-18.17 19.37,-21.72 28.78,-24.11 5.8,-1.47 1.15,-5.6 -3.66,-3.53z"/>
  <circle class="fil6 str1" cx="1655" cy="471.99" r="333.25"/>
  <circle class="fil6 str2" cx="1655" cy="471.99" r="309.58"/>
  <path class="fil2" d="M387.84 969.48c0,0.32 0.36,0.64 0.73,0.64 1.45,0 3.64,-0.97 4,-1.93l7.28 -41.21c0.36,-1.61 -0.36,-2.25 -1.82,-2.25 -2.91,0 -9.82,0.32 -22.56,0.64 -12.74,0.32 -31.66,0.64 -58.94,0.64 -28.38,0 -47.67,-0.32 -60.4,-0.97 -12.74,-0.32 -19.28,-0.64 -21.83,-0.64 -1.46,0 -2.18,0.32 -2.55,2.25l-10.92 40.25c0,0.97 1.82,1.93 3.27,1.93 0.36,0 1.09,-0.32 1.46,-0.97l17.83 -28.01c2.18,-3.22 4,-4.51 8.01,-5.15 11.28,-2.25 37.11,-3.22 48.03,-3.22 -4,21.25 -12.37,64.08 -17.1,86.94 -5.09,24.15 -15.65,79.53 -18.19,91.12 -0.73,2.58 -2.55,3.86 -4.73,4.19l-18.19 3.22c-1.09,0.32 -2.18,2.58 -2.18,3.54 0,0.64 0.36,0.64 0.73,0.64 6.55,-0.32 19.29,-0.64 33.47,-0.64 16.01,0 29.84,0.32 35.66,0.64 1.09,0 1.09,-0.32 1.45,-0.97 0,-1.29 -0.73,-2.9 -1.45,-3.22l-18.19 -3.22c-1.82,-0.32 -2.91,-0.97 -2.55,-4.51 2.55,-11.91 14.56,-63.11 20.74,-90.16 5.82,-24.79 15.65,-66.65 21.1,-87.58 10.19,0 35.29,1.29 47.3,3.54 3.27,0.64 5.09,2.25 5.46,5.15l5.09 29.3zm44.76 90.8c1.09,-4.19 2.18,-8.05 3.27,-12.56 8.73,-36.71 25.1,-102.71 32.75,-134.59 1.09,-4.83 -0.73,-6.76 -5.09,-6.76 -12.37,0 -37.84,4.51 -46.21,7.08 -0.73,0.32 -1.09,0.64 -1.09,0.97 0,1.61 1.82,3.54 3.64,3.22 4.37,-0.64 10.55,-1.29 14.92,-1.29 2.55,0 4,2.25 3.27,5.8 -2.18,10.63 -13.83,67.62 -19.28,94.66 -6.55,31.56 -17.47,84.04 -21.83,102.71 -0.36,1.29 0,2.25 1.46,2.25l12.73 -0.32c5.82,-0.32 7.64,-2.25 9.1,-6.76 2.18,-8.37 7.64,-28.01 10.92,-35.74 14.19,-33.17 50.94,-85.97 75.68,-85.97 11.28,0 14.92,9.02 14.92,25.44 0,24.15 -12.73,76.31 -17.46,94.66 -0.73,2.25 -1.09,4.19 -1.09,5.47 0,2.58 1.82,4.51 6.55,4.51 10.92,0 28.02,-2.26 37.48,-7.41 0.36,-0.32 0.36,-0.64 0.36,-0.97 0,-1.29 -1.09,-2.58 -2.55,-2.25 -5.09,1.29 -10.19,1.93 -14.19,1.93 -3.64,0 -4.73,-1.61 -3.64,-5.47 8.73,-28.98 21.83,-74.7 21.83,-102.07 0,-19.96 -6.91,-32.52 -22.92,-32.52 -37.11,0 -73.5,52.16 -86.23,75.35 -1.82,2.9 -3.64,6.44 -5.82,10.62l-1.45 0zm259.07 38.64c0,-0.64 -0.36,-1.29 -1.09,-0.97 -8.01,4.19 -20.01,9.34 -27.65,11.27 -5.09,1.61 -13.83,3.22 -21.47,3.22 -22.2,0 -36.39,-13.2 -36.39,-37.35 0,-7.73 1.82,-18.03 3.64,-24.79 22.92,1.61 45.85,-1.61 64.04,-7.73 21.83,-7.73 35.29,-22.86 35.29,-39.6 0,-15.46 -13.1,-28.66 -38.93,-28.66 -51.3,0 -92.42,59.57 -92.42,105.61 0,29.3 20.38,43.15 49.85,43.15 13.83,0 21.83,-1.61 26.56,-2.9 13.46,-4.51 29.11,-12.24 37.48,-17.07 1.09,-0.64 1.09,-2.58 1.09,-3.86l0 -0.32zm-28.38 -118.17c13.46,0 18.56,10.3 18.56,21.89 0,14.81 -11.64,28.01 -27.29,34.45 -12.01,5.47 -28.02,8.69 -44.39,7.41 8.73,-35.42 30.2,-64.08 52.76,-64.08l0.36 0.32zm141.18 -54.68c-0.73,0 -1.09,0.32 -1.09,0.97 0,2.63 0.73,3.6 1.46,3.92l13.46 2.25c1.82,0.32 3.27,1.61 2.55,6.76 -2.91,14.81 -11.28,55.97 -16.01,80.44 -5.46,26.4 -15.28,76.63 -18.19,89.14 -0.36,3.22 -1.82,3.86 -4.37,4.51l-16.01 2.9c-1.09,0.32 -2.18,2.25 -2.18,3.54 0,0.64 0.36,0.64 0.73,0.64 6.19,-0.32 17.83,-0.64 30.93,-0.64 15.28,0 28.75,0.32 33.11,0.64 0.73,0 1.09,-0.32 1.09,-0.97 0,-1.61 -0.36,-2.9 -1.09,-3.22l-14.92 -2.9c-2.18,-0.32 -3.64,-1.29 -2.91,-5.15 4.37,-19.27 14.55,-63.06 20.01,-87.53 5.46,-24.15 14.92,-65.31 20.38,-84.31 0.73,-1.61 2.18,-3.54 4.37,-3.86l13.1 -2.25c1.82,-0.32 2.55,-2.63 2.55,-3.92 0,-0.64 0,-0.97 -0.73,-0.97l-66.22 0zm195.39 48.24c-36.39,0 -72.41,50.23 -86.23,74.7 -1.46,2.25 -3.27,6.44 -5.82,10.62l-1.46 -0.32c1.09,-3.22 2.55,-8.37 3.64,-11.91 5.09,-19.96 12.37,-48.94 16.01,-64.4 1.46,-5.47 -0.73,-8.69 -5.82,-8.69 -14.92,0 -34.93,5.15 -43.3,9.34 -0.73,0.32 -1.46,0.32 -1.46,0.97 0,1.29 1.82,3.22 4,2.9 4.73,-1.61 10.19,-2.9 13.1,-2.9 2.55,0 4.37,1.29 3.64,6.44 -2.18,11.91 -6.55,34.45 -10.55,53.77 -3.64,20.61 -12.73,64.4 -14.92,74.7 -0.36,1.29 0,1.93 1.09,1.93l13.83 -0.32c5.09,0 6.55,-1.93 7.64,-5.8 2.55,-9.34 8.37,-29.62 12.37,-38.32 14.56,-33.16 50.94,-84.04 75.32,-84.04 11.28,0 14.56,9.02 14.56,24.79 0,25.44 -12.37,74.38 -17.83,95.95 -0.36,1.93 -0.73,3.54 -0.73,4.83 0,2.58 1.82,4.51 6.91,4.51 10.55,0 27.65,-2.58 37.11,-7.73 0.36,0 0.73,-0.32 0.73,-0.64 0,-1.29 -1.46,-2.9 -2.55,-2.58 -5.46,1.61 -10.19,2.26 -14.19,2.26 -3.64,0 -4.73,-1.61 -3.64,-5.47 7.64,-26.4 21.47,-75.35 21.47,-102.71 0,-19.96 -7.28,-31.88 -22.56,-31.88l-0.36 0zm177.2 19.64c-1.09,-2.25 -2.91,-4.51 -4.37,-6.12 -6.19,-7.41 -16.01,-13.52 -32.38,-13.52 -55.31,0 -91.33,72.12 -91.33,111.73 0,22.22 10.92,37.03 31.29,37.03 33.11,0 61.85,-33.49 80.78,-64.72 1.82,-2.9 3.27,-6.12 4.73,-9.66l1.09 0.32c-1.09,4.18 -2.91,10.62 -3.64,13.85 -3.27,15.78 -8.01,37.67 -10.19,49.26 -0.36,2.58 -0.73,4.51 -0.73,6.44 0,2.25 1.82,4.51 6.55,4.51 11.64,0 27.29,-2.58 36.75,-7.41 0.36,-0.32 0.73,-0.64 0.73,-0.97 0,-1.29 -1.09,-2.9 -2.55,-2.58 -4.37,1.61 -10.55,2.58 -14.19,2.58 -3.64,0 -4.37,-1.93 -3.64,-5.8 2.91,-13.52 13.1,-58.92 18.92,-84.04 8,-34.77 19.65,-84.36 26.56,-112.05 1.09,-4.51 -0.73,-6.44 -5.09,-6.44 -12.37,0 -39.66,4.51 -48.03,7.41 -0.73,0 -1.09,0.32 -1.09,0.64 0,1.93 1.46,3.54 3.64,3.22 4.73,-0.64 11.64,-1.29 16.74,-1.29 2.91,0 4,1.93 3.64,5.15 -2.91,14.17 -7.28,37.99 -11.28,58.92 -0.73,3.54 -1.46,8.69 -2.18,13.2l-0.73 0.32zm-80.78 114.63c-12.37,0 -18.56,-9.66 -18.56,-26.73 0,-27.05 23.29,-101.43 62.95,-101.43 17.47,0 27.65,14.49 30.93,24.15 0.73,2.9 1.09,6.12 1.09,8.37 0,2.9 -0.36,6.76 -1.82,9.66 -15.28,39.6 -48.39,85.97 -74.23,85.97l-0.36 0zm180.84 -183.21c-11.28,0 -17.83,8.69 -17.83,16.1 0,7.08 6.91,11.59 13.83,11.59 10.92,0 17.83,-8.05 17.83,-15.78 0,-4.83 -3.27,-11.91 -13.46,-11.91l-0.36 0zm0 48.94c-14.55,0 -34.93,5.15 -43.3,9.34 -0.73,0.32 -1.09,0.32 -1.09,0.97 0,1.29 1.82,3.22 3.64,2.9 4.73,-1.61 10.19,-2.9 13.1,-2.9 2.91,0 4.37,1.61 3.64,6.44 -1.82,9.98 -5.82,32.2 -10.92,58.28 -4.73,24.47 -10.92,56.03 -12.01,63.43 -0.36,1.61 -0.73,4.19 -0.73,5.47 0,2.58 1.46,4.83 6.55,4.83 11.64,0 28.75,-2.58 38.21,-7.73 0.36,0 0.73,-0.32 0.73,-0.64 0,-1.29 -1.09,-2.9 -2.55,-2.58 -5.46,1.61 -10.92,2.26 -14.92,2.26 -3.64,0 -4.73,-1.93 -4,-5.8 2.55,-10.95 9.1,-37.35 13.46,-57.96 5.46,-23.5 12.73,-52.81 16.37,-67.62 1.46,-5.8 -0.73,-8.69 -5.82,-8.69l-0.36 0zm155.73 19.96l-1.46 0c-1.09,-1.93 -2.55,-4.18 -4.37,-6.12 -5.82,-6.76 -14.92,-13.85 -34.57,-13.85 -54.94,0 -91.33,69.55 -91.33,112.37 0,22.22 10.55,36.39 31.29,36.39 32.38,0 58.94,-34.13 76.05,-62.79 1.82,-2.9 3.64,-6.76 5.46,-10.3l1.09 0.32c-0.73,3.22 -1.82,7.41 -2.91,11.59 -4.37,18.35 -10.19,43.15 -11.64,51.52 -0.36,1.93 -0.73,3.86 -0.73,5.15 0,2.58 2.18,4.51 6.91,4.51 11.64,0 26.93,-2.26 36.75,-7.41 0.36,-0.32 0.73,-0.64 0.73,-0.97 0,-0.97 -1.09,-2.58 -2.55,-2.25 -4.73,1.29 -10.55,2.25 -14.55,2.25 -3.27,0 -4,-1.93 -3.27,-5.47 2.18,-9.66 8.37,-33.16 11.64,-47.65 5.09,-20.93 16.74,-67.62 20.38,-81.14 0.73,-3.22 -3.64,-5.15 -5.1,-5.15 -0.73,0 -1.09,0.32 -1.45,0.64l-16.37 18.35zm-40.03 -14.17c17.83,0 25.84,16.42 28.02,26.73 0.36,2.25 0.36,4.51 0.36,7.08 0,2.9 -1.09,7.73 -2.91,12.24 -12.73,31.88 -43.66,82.43 -70.59,82.43 -11.64,0 -18.19,-9.66 -18.19,-26.08 0,-32.52 24.02,-102.39 62.95,-102.39l0.36 0zm212.86 -5.8c-36.38,0 -72.41,50.23 -86.23,74.7 -1.46,2.25 -3.27,6.44 -5.82,10.62l-1.46 -0.32c1.09,-3.22 2.55,-8.37 3.64,-11.91 5.09,-19.96 12.37,-48.94 16.01,-64.4 1.46,-5.47 -0.73,-8.69 -5.82,-8.69 -14.92,0 -34.93,5.15 -43.3,9.34 -0.73,0.32 -1.46,0.32 -1.46,0.97 0,1.29 1.82,3.22 4,2.9 4.73,-1.61 10.19,-2.9 13.1,-2.9 2.55,0 4.37,1.29 3.64,6.44 -2.18,11.91 -6.55,34.45 -10.55,53.77 -3.64,20.61 -12.74,64.4 -14.92,74.7 -0.36,1.29 0,1.93 1.09,1.93l13.83 -0.32c5.09,0 6.55,-1.93 7.64,-5.8 2.55,-9.34 8.37,-29.62 12.37,-38.32 14.56,-33.16 50.94,-84.04 75.32,-84.04 11.28,0 14.56,9.02 14.56,24.79 0,25.44 -12.37,74.38 -17.83,95.95 -0.36,1.93 -0.73,3.54 -0.73,4.83 0,2.58 1.82,4.51 6.91,4.51 10.55,0 27.65,-2.58 37.11,-7.73 0.36,0 0.73,-0.32 0.73,-0.64 0,-1.29 -1.46,-2.9 -2.55,-2.58 -5.46,1.61 -10.19,2.26 -14.19,2.26 -3.64,0 -4.73,-1.61 -3.64,-5.47 7.64,-26.4 21.47,-75.35 21.47,-102.71 0,-19.96 -7.28,-31.88 -22.56,-31.88l-0.36 0zm135.72 -48.3c-0.73,0 -1.46,0.32 -1.46,1.29 0,1.61 0.36,3.22 1.46,3.22l13.46 2.58c1.46,0.32 2.91,1.61 2.18,6.12 -1.82,9.98 -10.55,55.38 -15.65,80.82 -5.46,26.08 -14.92,75.02 -18.19,89.19 -0.73,3.54 -2.18,4.19 -4.73,4.83l-15.28 2.9c-1.09,0.32 -2.18,2.25 -2.18,3.22 0,0.64 0.36,0.97 0.73,0.97 6.91,-0.32 17.83,-0.64 30.93,-0.64 15.28,0 28.02,0.32 34.57,0.64 0.73,0 1.09,-0.32 1.09,-1.29 0,-0.97 -0.73,-2.58 -1.45,-2.9l-17.1 -2.9c-1.46,-0.32 -3.27,-1.29 -2.55,-5.47 4.37,-19.64 13.46,-59.25 18.56,-79.21 0.36,-2.25 1.82,-3.54 4.73,-3.54 20.01,-0.97 77.5,-2.25 92.06,-2.25 -5.09,23.5 -14.92,72.45 -18.19,86.29 -0.36,2.25 -2.55,3.54 -5.09,3.86l-17.1 3.22c-1.09,0.32 -2.18,2.25 -2.18,3.22 0,0.64 0,0.97 0.73,0.97 5.46,-0.32 19.29,-0.64 34.2,-0.64 13.46,0 26.2,0.32 30.93,0.64 1.09,0 1.09,-0.32 1.09,-1.29 0,-1.29 -0.36,-2.58 -1.09,-2.9l-14.55 -2.9c-1.82,-0.32 -3.27,-1.29 -2.91,-4.19 3.27,-13.2 14.92,-63.43 20.74,-88.22 5.46,-23.83 16.37,-66.97 21.1,-83.39 1.46,-4.18 2.55,-4.83 4.73,-5.15l12.01 -2.58c1.09,0 2.55,-2.58 2.55,-3.54 0,-0.64 -0.36,-0.97 -1.09,-0.97l-65.86 0c-0.73,0 -1.09,0.32 -1.09,0.97 0,2.25 0.36,3.54 1.45,3.54l14.19 2.58c1.82,0.32 3.27,1.61 2.91,5.47 -3.64,15.78 -12.74,63.75 -16.37,79.21 -16.74,0.32 -75.68,-0.64 -90.24,-1.29 -2.91,0 -4.73,-0.64 -4,-3.54 2.91,-14.49 12.37,-56.03 18.19,-75.99 0.36,-1.93 1.46,-3.22 4,-3.86l15.65 -2.58c1.46,-0.32 2.55,-2.25 2.55,-3.86 0,-0.32 -0.36,-0.64 -1.09,-0.64l-67.31 0zm481.02 48.3c-36.39,0 -72.41,50.23 -86.23,74.7 -1.46,2.25 -3.27,6.44 -5.82,10.62l-1.46 -0.32c1.09,-3.22 2.55,-8.37 3.64,-11.91 5.09,-19.96 12.37,-48.94 16.01,-64.4 1.46,-5.47 -0.73,-8.69 -5.82,-8.69 -14.92,0 -34.93,5.15 -43.3,9.34 -0.73,0.32 -1.45,0.32 -1.45,0.97 0,1.29 1.82,3.22 4,2.9 4.73,-1.61 10.19,-2.9 13.1,-2.9 2.55,0 4.37,1.29 3.64,6.44 -2.18,11.91 -6.55,34.45 -10.55,53.77 -3.64,20.61 -12.73,64.4 -14.92,74.7 -0.36,1.29 0,1.93 1.09,1.93l13.83 -0.32c5.09,0 6.55,-1.93 7.64,-5.8 2.55,-9.34 8.37,-29.62 12.37,-38.32 14.56,-33.16 50.94,-84.04 75.32,-84.04 11.28,0 14.55,9.02 14.55,24.79 0,25.44 -12.37,74.38 -17.83,95.95 -0.36,1.93 -0.73,3.54 -0.73,4.83 0,2.58 1.82,4.51 6.91,4.51 10.55,0 27.65,-2.58 37.11,-7.73 0.36,0 0.73,-0.32 0.73,-0.64 0,-1.29 -1.46,-2.9 -2.55,-2.58 -5.46,1.61 -10.19,2.26 -14.19,2.26 -3.64,0 -4.73,-1.61 -3.64,-5.47 7.64,-26.4 21.47,-75.35 21.47,-102.71 0,-19.96 -7.28,-31.88 -22.56,-31.88l-0.36 0zm165.92 124.61c0,-0.64 -0.36,-1.29 -1.09,-0.97 -8.01,4.19 -20.01,9.34 -27.65,11.27 -5.09,1.61 -13.83,3.22 -21.47,3.22 -22.2,0 -36.39,-13.2 -36.39,-37.35 0,-7.73 1.82,-18.03 3.64,-24.79 22.92,1.61 45.85,-1.61 64.04,-7.73 21.83,-7.73 35.3,-22.86 35.3,-39.6 0,-15.46 -13.1,-28.66 -38.93,-28.66 -51.31,0 -92.42,59.57 -92.42,105.61 0,29.3 20.38,43.15 49.85,43.15 13.83,0 21.83,-1.61 26.56,-2.9 13.46,-4.51 29.11,-12.24 37.48,-17.07 1.09,-0.64 1.09,-2.58 1.09,-3.86l0 -0.32zm-28.38 -118.17c13.46,0 18.56,10.3 18.56,21.89 0,14.81 -11.64,28.01 -27.29,34.45 -12.01,5.47 -28.02,8.69 -44.39,7.41 8.73,-35.42 30.2,-64.08 52.76,-64.08l0.36 0.32zm121.53 124.93c-0.36,-3.54 -0.73,-6.76 -1.09,-9.66 -3.27,-28.66 -9.46,-82.75 -12.37,-113.66 -0.36,-4.83 -1.82,-8.05 -6.55,-8.05 -14.92,0 -33.84,5.15 -41.48,9.02 -0.73,0.32 -1.46,0.32 -1.46,0.97 0,1.29 1.82,3.22 4,2.58 4,-1.29 8.73,-2.25 12.01,-2.25 2.55,0 4.37,1.61 5.09,6.12 4.73,33.17 16.74,107.54 22.2,131.69 0.73,3.54 0.73,5.15 -1.09,7.41 -16.01,19 -38.57,36.38 -54.94,36.38 -7.64,0 -13.83,-3.22 -18.19,-9.34 -0.36,-0.32 -0.36,-0.64 -0.73,-0.64 -1.45,0 -4.37,2.25 -4.37,3.86 0,4.83 2.18,14.17 5.46,17.39 2.55,2.58 5.82,3.54 10.92,3.54 29.84,0 62.58,-36.71 84.05,-64.4 26.93,-33.49 63.68,-97.24 76.41,-119.14 5.1,-9.02 8.73,-17.07 8.73,-20.93 0,-1.29 -0.73,-2.25 -2.55,-2.25 -5.82,0 -16.37,3.54 -20.74,6.44 -1.09,0.97 -1.82,1.61 -1.82,2.9 0,3.54 -3.27,12.56 -5.46,18.03 -11.28,28.66 -32.02,67.94 -48.03,94.02 -1.46,2.58 -4,6.44 -6.19,9.98l-1.82 0zm173.2 -88.55c2.91,-0.97 6.19,-2.25 8,-3.54 22.92,-10.3 48.39,-27.37 48.39,-52.81 0,-20.93 -18.92,-32.2 -43.3,-32.2 -32.75,0 -65.86,22.54 -65.86,52.81 0,16.74 10.55,28.33 19.65,37.03 1.46,1.29 2.91,2.25 4,3.22l0 0.97c-3.27,1.29 -6.91,2.9 -10.19,4.19 -25.83,10.63 -50.58,30.91 -50.58,58.28 0,26.73 26.93,38 56.03,38 36.02,0 56.76,-13.52 74.59,-29.95 8.73,9.34 18.92,20.93 25.84,29.62 1.09,0.97 5.09,1.61 9.82,1.61 2.91,0 4.37,-0.64 3.64,-1.93 -6.91,-13.52 -17.47,-29.62 -26.2,-42.18 13.83,-15.13 22.92,-31.23 28.75,-43.15 3.27,-6.12 6.55,-15.13 6.55,-18.03 0,-0.97 -0.73,-1.93 -2.18,-1.93 -6.19,0 -13.1,3.54 -16.37,6.76 -1.09,0.64 -1.46,1.29 -1.46,1.93 0,3.22 -1.09,8.37 -2.55,12.56 -2.91,9.98 -8.73,24.15 -17.47,36.06 -10.92,-16.1 -31.29,-39.28 -49.12,-56.35l0 -0.97zm-26.2 -41.54c0,-22.86 17.46,-41.54 37.11,-41.54 13.46,0 22.56,9.34 22.56,24.79 0,24.79 -17.1,43.47 -38.93,54.09 -12.73,-12.88 -20.74,-23.18 -20.74,-37.03l0 -0.32zm4.73 137.81c-21.47,0 -40.75,-11.59 -40.75,-32.84 0,-23.5 17.46,-41.86 38.57,-53.13 13.83,12.56 43.66,42.5 59.31,60.21 -13.83,15.46 -34.57,25.76 -56.76,25.76l-0.36 0zm133.9 -52.81c0,40.89 29.84,62.47 70.59,62.47 13.1,0 22.2,-0.97 27.29,-2.26 12.37,-3.22 30.2,-9.66 39.66,-14.17 1.09,-0.32 1.82,-1.93 1.82,-4.19 0,-0.97 -0.36,-1.29 -1.09,-0.97 -10.55,3.54 -22.2,7.08 -32.38,8.69 -4.73,1.29 -13.1,2.25 -21.47,2.25 -30.56,0 -53.49,-18.03 -53.49,-55.06 0,-34.13 17.1,-78.56 46.21,-105.61 14.92,-12.88 33.47,-21.57 49.12,-21.57 10.19,0 14.56,1.93 17.83,4.83 1.82,1.61 2.55,3.22 3.27,6.12 2.18,10.3 4.73,22.22 7.28,33.49 0,0.64 0.36,0.97 1.09,0.97 1.09,0 3.64,-1.29 4,-2.58l5.09 -40.89c0.36,-1.61 0,-2.25 -1.09,-3.22 -6.19,-3.54 -16.37,-5.47 -30.56,-5.47 -28.75,0 -56.4,10.95 -77.5,26.73 -33.47,26.4 -55.67,70.84 -55.67,110.12l0 0.32z"/>
  <circle class="fil3 str0" transform="matrix(-0.313624 0.0346086 0.0346086 0.313624 2353.79 1003.8)" r="31.77"/>
  <circle class="fil3 str0" transform="matrix(-0.314345 0.0346923 0.0346881 0.314383 656.763 1005.81)" r="31.77"/>
  <path class="fil6 str3" d="M2015.13 971.93l21.98 20.43 22.15 20.59c3.34,3.11 4.7,7.41 3.73,11.88l-6.5 29.95 -6.49 29.88c-0.98,4.5 -4.03,7.87 -8.41,9.29l-28.54 9.25 -28.39 9.21c-4.46,1.45 -9.01,0.44 -12.44,-2.75l-21.98 -20.43 -22.15 -20.59c-3.34,-3.11 -4.7,-7.41 -3.73,-11.88l6.5 -29.95 6.49 -29.88c0.98,-4.5 4.03,-7.87 8.41,-9.29l28.54 -9.25 28.39 -9.21c4.46,-1.45 9.01,-0.44 12.44,2.75z"/>
  <path class="fil3" d="M2007.31 1000.47l12.29 11.42 12.41 11.54c2.51,2.33 3.52,5.56 2.8,8.91l-3.64 16.79 -3.63 16.75c-0.73,3.37 -3.03,5.91 -6.31,6.97l-15.97 5.18 -15.86 5.14c-3.34,1.08 -6.76,0.33 -9.33,-2.06l-12.29 -11.42 -12.41 -11.54c-2.51,-2.33 -3.52,-5.56 -2.8,-8.91l3.64 -16.79 3.63 -16.75c0.73,-3.37 3.03,-5.91 6.31,-6.97l15.97 -5.18 15.86 -5.14c3.34,-1.08 6.76,-0.33 9.33,2.06z"/>
  <path class="fil6 str3" d="M3023.24 980.93l19.81 18.41 19.97 18.57c3.34,3.11 4.69,7.41 3.73,11.88l-5.86 27.01 -5.85 26.95c-0.98,4.5 -4.03,7.88 -8.41,9.29l-25.73 8.34 -25.57 8.29c-4.46,1.45 -9.01,0.44 -12.44,-2.75l-19.81 -18.41 -19.97 -18.57c-3.34,-3.11 -4.69,-7.41 -3.73,-11.88l5.86 -27.01 5.85 -26.95c0.98,-4.5 4.03,-7.88 8.41,-9.29l25.73 -8.34 25.57 -8.29c4.46,-1.45 9.01,-0.44 12.44,2.75z"/>
  <rect class="fil3" x="129.58" y="1155.25" width="2258.41" height="7.46" rx="2.06" ry="3.14"/>
  <path class="fil3" d="M3155.16 1153.59l-675.42 0 0 7.46 675.42 0c1.73,0 3.14,-1.41 3.14,-3.14l0 -1.18c0,-1.73 -1.41,-3.14 -3.14,-3.14z"/>
  <path class="fil3" d="M1549.56 371.14l16.33 10.06 16.5 10.16c3.33,2.05 5.19,5.45 5.13,9.37l-0.33 19.65 -0.33 19.59c-0.07,3.95 -2.07,7.3 -5.52,9.23l-16.75 9.38 -16.64 9.31c-3.51,1.96 -7.51,1.88 -10.93,-0.23l-16.33 -10.06 -16.5 -10.16c-3.34,-2.05 -5.2,-5.45 -5.13,-9.37l0.33 -19.65 0.33 -19.59c0.07,-3.95 2.07,-7.3 5.52,-9.23l16.75 -9.38 16.64 -9.31c3.51,-1.96 7.51,-1.88 10.93,0.23z"/>
 </g>
</svg>
